<svg width="16" height="17" viewBox="0 0 16 17" fill="none" xmlns="http://www.w3.org/2000/svg">
<path d="M1.38165 0.5C1.2159 0.500017 1.05694 0.56587 0.939731 0.683077C0.822524 0.800283 0.756671 0.959245 0.756654 1.125V15.7083C0.755483 15.7912 0.770784 15.8734 0.801667 15.9502C0.832551 16.0271 0.878401 16.097 0.936554 16.156C0.994707 16.215 1.064 16.2618 1.14041 16.2938C1.21682 16.3258 1.29883 16.3422 1.38165 16.3422C1.46448 16.3422 1.54648 16.3258 1.6229 16.2938C1.69931 16.2618 1.7686 16.215 1.82675 16.156C1.88491 16.097 1.93076 16.0271 1.96164 15.9502C1.99252 15.8734 2.00783 15.7912 2.00665 15.7083V11.75H15.1317C15.2477 11.7499 15.3615 11.7176 15.4602 11.6565C15.5589 11.5954 15.6386 11.5081 15.6905 11.4043C15.7424 11.3005 15.7643 11.1843 15.7538 11.0687C15.7434 10.9531 15.701 10.8427 15.6313 10.7498L12.1629 6.125L15.6313 1.50016C15.701 1.40732 15.7434 1.29693 15.7538 1.18134C15.7643 1.06575 15.7424 0.949532 15.6905 0.845708C15.6386 0.741884 15.5589 0.654551 15.4602 0.593492C15.3615 0.532434 15.2477 0.500061 15.1317 0.5H1.38165ZM2.00665 1.75H13.8817L10.882 5.74984C10.8008 5.85806 10.7569 5.9897 10.7569 6.125C10.7569 6.2603 10.8008 6.39194 10.882 6.50016L13.8817 10.5H2.00665V1.75Z" fill="#344563"/>
</svg>
