<svg width="20" height="18" viewBox="0 0 20 18" fill="none" xmlns="http://www.w3.org/2000/svg">
<path d="M10.7275 2.04099e-05C10.5326 0.00588144 10.3475 0.0874768 10.2117 0.227497C10.0759 0.367517 9.99993 0.554945 10 0.75002V4.00002H3.25C1.74011 4.00002 0.5 5.24013 0.5 6.75002V11.25C0.5 12.7599 1.74011 14 3.25 14H10V17.25C10 17.3974 10.0435 17.5415 10.1249 17.6643C10.2064 17.7872 10.3222 17.8833 10.4579 17.9407C10.5937 17.9981 10.7433 18.0142 10.8882 17.9871C11.033 17.96 11.1667 17.8907 11.2725 17.7881L19.7725 9.53811C19.8444 9.46819 19.9017 9.38455 19.9408 9.29212C19.9798 9.1997 20 9.10037 20 9.00002C20 8.89967 19.9798 8.80034 19.9408 8.70792C19.9017 8.61549 19.8444 8.53185 19.7725 8.46193L11.2725 0.211934C11.2004 0.141929 11.1151 0.0870986 11.0215 0.0506965C10.9279 0.0142944 10.8279 -0.00293841 10.7275 2.04099e-05ZM11.5 2.52346L18.1728 9.00002L11.5 15.4766V13.25C11.5 13.0511 11.421 12.8604 11.2803 12.7197C11.1397 12.5791 10.9489 12.5 10.75 12.5H3.25C2.55089 12.5 2 11.9491 2 11.25V6.75002C2 6.05091 2.55089 5.50002 3.25 5.50002H10.75C10.9489 5.5 11.1397 5.42098 11.2803 5.28033C11.421 5.13968 11.5 4.94893 11.5 4.75002V2.52346ZM10.7354 6.49318C10.5406 6.49886 10.3556 6.58012 10.2197 6.71975L7.25 9.68947L6.03027 8.46975C5.96116 8.39777 5.87839 8.3403 5.78679 8.30072C5.6952 8.26113 5.59662 8.24022 5.49684 8.2392C5.39706 8.23819 5.29808 8.25709 5.2057 8.29481C5.11332 8.33253 5.02939 8.3883 4.95883 8.45885C4.88828 8.52941 4.8325 8.61334 4.79479 8.70572C4.75707 8.7981 4.73817 8.89708 4.73918 8.99686C4.74019 9.09664 4.76111 9.19522 4.8007 9.28681C4.84028 9.37841 4.89775 9.46118 4.96973 9.53029L6.71973 11.2803C6.86038 11.4209 7.05112 11.4999 7.25 11.4999C7.44888 11.4999 7.63962 11.4209 7.78027 11.2803L11.2803 7.78029C11.3885 7.67492 11.4623 7.53933 11.4922 7.39128C11.5221 7.24322 11.5065 7.0896 11.4477 6.95052C11.3888 6.81143 11.2893 6.69337 11.1622 6.61177C11.0351 6.53017 10.8863 6.48884 10.7354 6.49318Z" fill="#42526E"/>
</svg>
