<svg width="14" height="16" viewBox="0 0 14 16" fill="none" xmlns="http://www.w3.org/2000/svg">
<path d="M0.809733 0.0833452C0.726705 0.0818399 0.64421 0.0968937 0.567065 0.127627C0.489921 0.158361 0.419674 0.204159 0.360427 0.262345C0.301179 0.320531 0.254121 0.38994 0.221998 0.466517C0.189876 0.543094 0.173335 0.625304 0.17334 0.708345V13.625C0.17334 14.8833 1.20677 15.9167 2.46501 15.9167H11.215C12.4732 15.9167 13.5067 14.8833 13.5067 13.625V0.708345C13.5067 0.604197 13.4807 0.501695 13.431 0.410154C13.3813 0.318613 13.3096 0.240933 13.2223 0.184174C13.1349 0.127414 13.0348 0.0933737 12.931 0.0851451C12.8272 0.0769164 12.7229 0.0947606 12.6278 0.137056L10.9937 0.863781L9.15527 0.128104C9.00637 0.0686068 8.84031 0.0686068 8.69141 0.128104L6.84001 0.868664L4.98861 0.128104C4.83971 0.0686068 4.67364 0.0686068 4.52474 0.128104L2.68636 0.863781L1.05225 0.137056C0.975816 0.103109 0.89335 0.0848451 0.809733 0.0833452ZM4.75667 1.38136L6.60807 2.12192C6.75697 2.18142 6.92304 2.18142 7.07194 2.12192L8.92334 1.38136L10.7747 2.12192C10.8522 2.15294 10.9351 2.16812 11.0186 2.16659C11.102 2.16505 11.1843 2.14682 11.2606 2.11297L12.2567 1.67026V13.625C12.2567 14.2076 11.7976 14.6667 11.215 14.6667H2.46501C1.88241 14.6667 1.42334 14.2076 1.42334 13.625V1.67026L2.41943 2.11297C2.49572 2.14682 2.57801 2.16505 2.66145 2.16659C2.74489 2.16812 2.8278 2.15294 2.90527 2.12192L4.75667 1.38136ZM3.29834 5.08334C3.21552 5.08217 3.13329 5.09747 3.05644 5.12836C2.97958 5.15924 2.90963 5.20509 2.85065 5.26325C2.79167 5.3214 2.74483 5.39069 2.71287 5.4671C2.6809 5.54351 2.66444 5.62552 2.66444 5.70834C2.66444 5.79117 2.6809 5.87318 2.71287 5.94959C2.74483 6.026 2.79167 6.09529 2.85065 6.15344C2.90963 6.2116 2.97958 6.25745 3.05644 6.28833C3.13329 6.31922 3.21552 6.33452 3.29834 6.33334H10.3817C10.4645 6.33452 10.5467 6.31922 10.6236 6.28833C10.7004 6.25745 10.7704 6.2116 10.8294 6.15344C10.8883 6.09529 10.9352 6.026 10.9671 5.94959C10.9991 5.87318 11.0156 5.79117 11.0156 5.70834C11.0156 5.62552 10.9991 5.54351 10.9671 5.4671C10.9352 5.39069 10.8883 5.3214 10.8294 5.26325C10.7704 5.20509 10.7004 5.15924 10.6236 5.12836C10.5467 5.09747 10.4645 5.08217 10.3817 5.08334H3.29834ZM3.29834 8.83334C3.21552 8.83217 3.13329 8.84748 3.05644 8.87836C2.97958 8.90924 2.90963 8.95509 2.85065 9.01325C2.79167 9.0714 2.74483 9.14069 2.71287 9.2171C2.6809 9.29351 2.66444 9.37552 2.66444 9.45834C2.66444 9.54117 2.6809 9.62318 2.71287 9.69959C2.74483 9.776 2.79167 9.84529 2.85065 9.90344C2.90963 9.9616 2.97958 10.0074 3.05644 10.0383C3.13329 10.0692 3.21552 10.0845 3.29834 10.0833H7.04834C7.13116 10.0845 7.21339 10.0692 7.29024 10.0383C7.3671 10.0074 7.43705 9.9616 7.49603 9.90344C7.55501 9.84529 7.60184 9.776 7.63381 9.69959C7.66578 9.62318 7.68224 9.54117 7.68224 9.45834C7.68224 9.37552 7.66578 9.29351 7.63381 9.2171C7.60184 9.14069 7.55501 9.0714 7.49603 9.01325C7.43705 8.95509 7.3671 8.90924 7.29024 8.87836C7.21339 8.84748 7.13116 8.83217 7.04834 8.83334H3.29834ZM9.54834 8.83334C9.46552 8.83217 9.38329 8.84748 9.30644 8.87836C9.22958 8.90924 9.15963 8.95509 9.10065 9.01325C9.04167 9.0714 8.99483 9.14069 8.96287 9.2171C8.9309 9.29351 8.91444 9.37552 8.91444 9.45834C8.91444 9.54117 8.9309 9.62318 8.96287 9.69959C8.99483 9.776 9.04167 9.84529 9.10065 9.90344C9.15963 9.9616 9.22958 10.0074 9.30644 10.0383C9.38329 10.0692 9.46552 10.0845 9.54834 10.0833H10.3817C10.4645 10.0845 10.5467 10.0692 10.6236 10.0383C10.7004 10.0074 10.7704 9.9616 10.8294 9.90344C10.8883 9.84529 10.9352 9.776 10.9671 9.69959C10.9991 9.62318 11.0156 9.54117 11.0156 9.45834C11.0156 9.37552 10.9991 9.29351 10.9671 9.2171C10.9352 9.14069 10.8883 9.0714 10.8294 9.01325C10.7704 8.95509 10.7004 8.90924 10.6236 8.87836C10.5467 8.84748 10.4645 8.83217 10.3817 8.83334H9.54834ZM3.29834 11.3333C3.21552 11.3322 3.13329 11.3475 3.05644 11.3784C2.97958 11.4092 2.90963 11.4551 2.85065 11.5132C2.79167 11.5714 2.74483 11.6407 2.71287 11.7171C2.6809 11.7935 2.66444 11.8755 2.66444 11.9583C2.66444 12.0412 2.6809 12.1232 2.71287 12.1996C2.74483 12.276 2.79167 12.3453 2.85065 12.4034C2.90963 12.4616 2.97958 12.5074 3.05644 12.5383C3.13329 12.5692 3.21552 12.5845 3.29834 12.5833H7.04834C7.13116 12.5845 7.21339 12.5692 7.29024 12.5383C7.3671 12.5074 7.43705 12.4616 7.49603 12.4034C7.55501 12.3453 7.60184 12.276 7.63381 12.1996C7.66578 12.1232 7.68224 12.0412 7.68224 11.9583C7.68224 11.8755 7.66578 11.7935 7.63381 11.7171C7.60184 11.6407 7.55501 11.5714 7.49603 11.5132C7.43705 11.4551 7.3671 11.4092 7.29024 11.3784C7.21339 11.3475 7.13116 11.3322 7.04834 11.3333H3.29834ZM9.54834 11.3333C9.46552 11.3322 9.38329 11.3475 9.30644 11.3784C9.22958 11.4092 9.15963 11.4551 9.10065 11.5132C9.04167 11.5714 8.99483 11.6407 8.96287 11.7171C8.9309 11.7935 8.91444 11.8755 8.91444 11.9583C8.91444 12.0412 8.9309 12.1232 8.96287 12.1996C8.99483 12.276 9.04167 12.3453 9.10065 12.4034C9.15963 12.4616 9.22958 12.5074 9.30644 12.5383C9.38329 12.5692 9.46552 12.5845 9.54834 12.5833H10.3817C10.4645 12.5845 10.5467 12.5692 10.6236 12.5383C10.7004 12.5074 10.7704 12.4616 10.8294 12.4034C10.8883 12.3453 10.9352 12.276 10.9671 12.1996C10.9991 12.1232 11.0156 12.0412 11.0156 11.9583C11.0156 11.8755 10.9991 11.7935 10.9671 11.7171C10.9352 11.6407 10.8883 11.5714 10.8294 11.5132C10.7704 11.4551 10.7004 11.4092 10.6236 11.3784C10.5467 11.3475 10.4645 11.3322 10.3817 11.3333H9.54834Z" fill="#091E42"/>
</svg>
