<svg width="16" height="16" viewBox="0 0 16 16" fill="none" xmlns="http://www.w3.org/2000/svg">
<path fill-rule="evenodd" clip-rule="evenodd" d="M1.15152 1.15152C1.62015 0.682892 2.37995 0.682892 2.84858 1.15152L8.00005 6.30299L13.1515 1.15152C13.6202 0.682892 14.3799 0.682892 14.8486 1.15152C15.3172 1.62015 15.3172 2.37995 14.8486 2.84858L9.69711 8.00005L14.8486 13.1515C15.3172 13.6202 15.3172 14.3799 14.8486 14.8486C14.3799 15.3172 13.6202 15.3172 13.1515 14.8486L8.00005 9.69711L2.84858 14.8486C2.37995 15.3172 1.62015 15.3172 1.15152 14.8486C0.682892 14.3799 0.682892 13.6202 1.15152 13.1515L6.30299 8.00005L1.15152 2.84858C0.682892 2.37995 0.682892 1.62015 1.15152 1.15152Z" fill="white"/>
</svg>
