<svg width="122" height="113" viewBox="0 0 122 113" fill="none" xmlns="http://www.w3.org/2000/svg">
<path opacity="0.35" d="M94.9733 27.4476H11.3466C5.57118 27.4476 0.893311 32.1254 0.893311 37.9009V69.2609C0.893311 75.0364 5.57118 79.7142 11.3466 79.7142H94.9733C100.749 79.7142 105.427 75.0364 105.427 69.2609V37.9009C105.427 32.1254 100.749 27.4476 94.9733 27.4476Z" fill="#00D6C2"/>
<path d="M53.16 69.2609C61.8198 69.2609 68.84 62.2407 68.84 53.5809C68.84 44.9211 61.8198 37.9009 53.16 37.9009C44.5002 37.9009 37.48 44.9211 37.48 53.5809C37.48 62.2407 44.5002 69.2609 53.16 69.2609Z" fill="#00D6C2"/>
<path d="M84.52 58.8076C87.4066 58.8076 89.7467 56.4675 89.7467 53.5809C89.7467 50.6943 87.4066 48.3542 84.52 48.3542C81.6334 48.3542 79.2933 50.6943 79.2933 53.5809C79.2933 56.4675 81.6334 58.8076 84.52 58.8076Z" fill="#00D6C2"/>
<path d="M21.8 58.8076C24.6866 58.8076 27.0267 56.4675 27.0267 53.5809C27.0267 50.6943 24.6866 48.3542 21.8 48.3542C18.9134 48.3542 16.5734 50.6943 16.5734 53.5809C16.5734 56.4675 18.9134 58.8076 21.8 58.8076Z" fill="#00D6C2"/>
<path d="M16.4845 79.7142V96.2775C16.4845 104.938 23.5039 111.958 32.1645 111.958H78.41C82.283 111.958 86.0201 110.525 88.9 107.933L103.153 95.1015L115.08 93.1206C120.453 92.2269 122.737 85.8294 119.22 81.669C116.371 78.303 112.143 75.3709 106.054 75.3709C96.8236 75.3709 84.4364 79.7142 84.4364 79.7142H16.4845Z" fill="#00D6C2"/>
<path d="M84.52 27.4476C84.52 23.5851 84.52 19.0065 84.52 16.9942C84.52 11.2188 79.8422 6.5409 74.0667 6.5409C71.8976 6.5409 69.8854 7.19946 68.2128 8.33364C66.7912 4.25684 62.9496 1.31423 58.3867 1.31423C53.8238 1.31423 49.9822 4.25684 48.5606 8.33364C46.888 7.19946 44.8758 6.5409 42.7067 6.5409C36.9312 6.5409 32.2534 11.2188 32.2534 16.9942C32.2534 17.7312 32.2534 18.8288 32.2534 20.0936C30.6122 18.2068 28.2236 16.9942 25.5319 16.9942C20.5822 16.9942 16.5734 21.0031 16.5734 25.9527C16.5734 26.3395 16.5734 26.8674 16.5734 27.4476H84.52Z" fill="#00D6C2"/>
</svg>
