<svg width="352" height="248" viewBox="0 0 352 248" fill="none" xmlns="http://www.w3.org/2000/svg">
<g clip-path="url(#clip0_9976_955)">
<path d="M241.247 161.206L191.895 132.627L176.461 141.562L161.037 132.627L111.694 161.206C106.646 164.135 106.646 171.438 111.694 174.367L163.965 204.639C171.704 209.12 181.237 209.12 188.975 204.639L241.247 174.367C246.294 171.438 246.294 164.135 241.247 161.206Z" fill="#00B09E" fill-opacity="0.2"/>
<path d="M125.623 139.344V166.106L176.47 195.444V136.769L160.463 159.441L125.623 139.344Z" fill="#00B09E"/>
<g style="mix-blend-mode:multiply" opacity="0.5">
<path d="M176.47 163.057V136.769L163.287 155.455L176.47 163.057Z" fill="#72A6CC"/>
</g>
<path d="M227.317 139.344V166.106L176.47 195.444V136.769L192.478 159.441L227.317 139.344Z" fill="#00B09E"/>
<g style="mix-blend-mode:multiply" opacity="0.5">
<path d="M220.72 123.903L182.83 145.772L176.47 136.769V149.439V162.583L185.881 175.923L227.317 152.014V139.344L220.72 123.903Z" fill="#008A7B"/>
</g>
<path d="M169.544 118.185C169.544 122.007 172.646 125.108 176.47 125.108C180.294 125.108 183.397 122.007 183.397 118.185H186.252V106.308H166.688V118.185H169.544V118.185Z" fill="#75777F"/>
<path d="M176.47 56.1934C188.489 56.1934 198.229 65.9279 198.229 77.939C198.229 83.1514 196.395 87.9414 193.333 91.6807C186.819 98.9945 187.056 106.308 187.056 106.308H165.874C165.874 106.308 166.111 98.9945 159.597 91.6807C156.536 87.9311 154.701 83.1514 154.701 77.939C154.701 65.9279 164.441 56.1934 176.46 56.1934H176.47Z" fill="#F9FAA5"/>
<path d="M188.788 116.898H164.153V119.473H188.788V116.898Z" fill="#006358"/>
<path d="M187.056 107.606H164.544L164.586 106.277C164.586 106.216 164.699 99.3447 158.638 92.546C155.257 88.4153 153.412 83.2441 153.412 77.9493C153.412 65.248 163.751 54.916 176.46 54.916C189.169 54.916 199.507 65.248 199.507 77.9493C199.507 83.2441 197.662 88.4153 194.323 92.5048C188.221 99.3551 188.334 106.216 188.334 106.288L188.365 107.606H187.046H187.056ZM167.111 105.031H185.829C186.067 102.476 187.18 96.6562 192.375 90.836C195.312 87.2409 196.941 82.6466 196.941 77.9493C196.941 66.6696 187.757 57.4913 176.47 57.4913C165.184 57.4913 156 66.6696 156 77.9493C156 82.6569 157.638 87.2409 160.607 90.8772C165.771 96.6768 166.884 102.487 167.111 105.031V105.031Z" fill="#006358"/>
<path d="M176.47 126.395C173.955 126.395 171.595 125.417 169.822 123.645L171.646 121.822C172.935 123.109 174.646 123.82 176.47 123.82C178.295 123.82 180.006 123.109 181.294 121.822L183.119 123.645C181.346 125.417 178.985 126.395 176.47 126.395Z" fill="#006358"/>
<path d="M188.788 110.954H164.153V113.529H188.788V110.954Z" fill="#006358"/>
<path d="M177.759 40H175.182V49.9715H177.759V40Z" fill="#006358"/>
<path d="M158.602 44.4452L156.371 45.7328L161.359 54.3684L163.591 53.0808L158.602 44.4452Z" fill="#006358"/>
<path d="M144.24 57.8632L142.952 60.0934L151.593 65.0792L152.881 62.8489L144.24 57.8632Z" fill="#006358"/>
<path d="M148.485 76.6514H138.508V79.2266H148.485V76.6514Z" fill="#006358"/>
<path d="M151.586 90.815L142.945 95.8008L144.233 98.031L152.874 93.0453L151.586 90.815Z" fill="#006358"/>
<path d="M201.358 90.8061L200.07 93.0363L208.711 98.0221L209.999 95.7918L201.358 90.8061Z" fill="#006358"/>
<path d="M194.337 44.4376L189.346 53.0723L191.578 54.3603L196.568 45.7256L194.337 44.4376Z" fill="#006358"/>
<path d="M208.71 57.8575L200.069 62.8432L201.358 65.0735L209.999 60.0877L208.71 57.8575Z" fill="#006358"/>
<path d="M214.433 76.6514H204.455V79.2266H214.433V76.6514Z" fill="#006358"/>
<path d="M213.363 97.9052L212.075 100.135L226.67 108.557L227.958 106.326L213.363 97.9052Z" fill="#006358"/>
<path d="M176.47 196.927L124.335 166.848V139.344H126.912V165.365L176.47 193.95L226.029 165.365V139.344H228.605V166.848L176.47 196.927Z" fill="#006358"/>
<path d="M138.169 98.7098L124.992 106.31L126.28 108.54L139.457 100.94L138.169 98.7098Z" fill="#006358"/>
<path d="M160.463 159.442L176.47 136.769L125.623 107.431L109.616 130.114L160.463 159.442Z" fill="#CCEFEC"/>
<path d="M192.478 159.442L176.47 136.769L227.317 107.431L243.325 130.114L192.478 159.442Z" fill="#CCEFEC"/>
<path d="M160.834 161.151L107.75 130.516L125.252 105.721L178.336 136.346L160.834 161.141V161.151ZM111.481 129.702L160.081 157.742L174.594 137.181L125.994 109.141L111.481 129.702V129.702Z" fill="#006358"/>
<path d="M192.107 161.151L174.605 136.357L227.688 105.731L245.19 130.526L192.107 161.151V161.151ZM178.336 137.181L192.849 157.742L241.449 129.702L226.936 109.141L178.336 137.181Z" fill="#006358"/>
<path d="M177.759 136.769H175.182V195.444H177.759V136.769Z" fill="#006358"/>
<path d="M123.147 90.519C123.502 90.875 123.965 91.0529 124.431 91.0529C124.897 91.0529 125.36 90.875 125.715 90.519C126.425 89.8097 126.425 88.6569 125.715 87.945L124.187 86.4129L125.715 84.8809C126.425 84.1716 126.425 83.0187 125.715 82.3068C125.005 81.595 123.857 81.595 123.147 82.3068L121.618 83.8389L120.09 82.3068C119.38 81.595 118.232 81.595 117.522 82.3068C116.812 83.0161 116.812 84.169 117.522 84.8809L119.05 86.4129L117.522 87.945C116.812 88.6543 116.812 89.8072 117.522 90.519C118.232 91.2309 119.38 91.2309 120.09 90.519L121.618 88.987L123.147 90.519Z" fill="#00B09E" fill-opacity="0.2"/>
<path d="M229.396 70.5407C229.751 70.8966 230.214 71.0746 230.68 71.0746C231.145 71.0746 231.609 70.8966 231.964 70.5407C232.674 69.8314 232.674 68.6785 231.964 67.9667L230.435 66.4346L231.964 64.9026C232.674 64.1933 232.674 63.0404 231.964 62.3285C231.254 61.6167 230.106 61.6167 229.396 62.3285L227.867 63.8606L226.339 62.3285C225.628 61.6167 224.481 61.6167 223.77 62.3285C223.06 63.0378 223.06 64.1907 223.77 64.9026L225.299 66.4346L223.77 67.9667C223.06 68.6759 223.06 69.8288 223.77 70.5407C224.481 71.2526 225.628 71.2526 226.339 70.5407L227.867 69.0087L229.396 70.5407Z" fill="#00B09E" fill-opacity="0.2"/>
<path d="M127.688 204.033C128.043 204.389 128.506 204.566 128.972 204.566C129.437 204.566 129.901 204.389 130.256 204.033C130.966 203.323 130.966 202.17 130.256 201.459L128.727 199.926L130.256 198.394C130.966 197.685 130.966 196.532 130.256 195.82C129.546 195.109 128.398 195.109 127.688 195.82L126.159 197.352L124.631 195.82C123.92 195.109 122.773 195.109 122.062 195.82C121.352 196.53 121.352 197.683 122.062 198.394L123.591 199.926L122.062 201.459C121.352 202.168 121.352 203.321 122.062 204.033C122.773 204.744 123.92 204.744 124.631 204.033L126.159 202.501L127.688 204.033Z" fill="#00B09E" fill-opacity="0.2"/>
</g>
<defs>
<clipPath id="clip0_9976_955">
<rect width="138.941" height="168" fill="white" transform="translate(107 40)"/>
</clipPath>
</defs>
</svg>
