<svg width="30" height="30" viewBox="0 0 30 30" fill="none" xmlns="http://www.w3.org/2000/svg">
<path opacity="0.35" d="M25.625 28.75H20.625C20.0063 28.75 19.4275 28.445 19.0775 27.9338L2.82754 4.18376C2.24254 3.32876 2.46129 2.16126 3.31629 1.57751C4.17379 0.99376 5.33879 1.21376 5.92254 2.06751L21.6138 25H25.625C26.6613 25 27.5 25.84 27.5 26.875C27.5 27.91 26.6613 28.75 25.625 28.75Z" fill="white"/>
<path d="M5.625 17.5H3.125C2.08875 17.5 1.25 16.66 1.25 15.625C1.25 14.59 2.08875 13.75 3.125 13.75H5.625C6.66125 13.75 7.5 14.59 7.5 15.625C7.5 16.66 6.66125 17.5 5.625 17.5Z" fill="white"/>
<path d="M26.875 17.5H24.375C23.3387 17.5 22.5 16.66 22.5 15.625C22.5 14.59 23.3387 13.75 24.375 13.75H26.875C27.9112 13.75 28.75 14.59 28.75 15.625C28.75 16.66 27.9112 17.5 26.875 17.5Z" fill="white"/>
<path d="M18.125 17.5H11.875C10.8387 17.5 10 16.66 10 15.625C10 14.59 10.8387 13.75 11.875 13.75H18.125C19.1612 13.75 20 14.59 20 15.625C20 16.66 19.1612 17.5 18.125 17.5Z" fill="white"/>
</svg>
