<svg width="20" height="19" viewBox="0 0 20 19" fill="none" xmlns="http://www.w3.org/2000/svg">
<path d="M18.0225 0.988374C17.8599 0.986162 17.6993 1.0236 17.5545 1.09745C17.4097 1.1713 17.2851 1.27934 17.1914 1.4122L5.85451 17.0001H2.00002C1.86751 16.9982 1.73595 17.0227 1.61298 17.0721C1.49001 17.1215 1.37809 17.1949 1.28372 17.2879C1.18935 17.381 1.11441 17.4918 1.06327 17.6141C1.01212 17.7364 0.985779 17.8676 0.985779 18.0001C0.985779 18.1326 1.01212 18.2638 1.06327 18.3861C1.11441 18.5083 1.18935 18.6192 1.28372 18.7123C1.37809 18.8053 1.49001 18.8787 1.61298 18.9281C1.73595 18.9775 1.86751 19.002 2.00002 19.0001H6.3633C6.52103 19 6.67651 18.9627 6.81704 18.891C6.95757 18.8194 7.07916 18.7156 7.1719 18.588L18.8086 2.58798C18.9192 2.44035 18.9868 2.26499 19.004 2.08132C19.0211 1.89765 18.9871 1.71282 18.9058 1.54726C18.8244 1.3817 18.6988 1.24188 18.5429 1.14324C18.3871 1.04461 18.2069 0.991008 18.0225 0.988374ZM1.75002 9.00009C1.55111 9.00009 1.36034 9.07911 1.21969 9.21976C1.07904 9.36041 1.00002 9.55118 1.00002 9.75009C1.00002 9.949 1.07904 10.1398 1.21969 10.2804C1.36034 10.4211 1.55111 10.5001 1.75002 10.5001C1.94893 10.5001 2.1397 10.4211 2.28035 10.2804C2.421 10.1398 2.50002 9.949 2.50002 9.75009C2.50002 9.55118 2.421 9.36041 2.28035 9.21976C2.1397 9.07911 1.94893 9.00009 1.75002 9.00009ZM4.25002 9.00009C4.05111 9.00009 3.86034 9.07911 3.71969 9.21976C3.57904 9.36041 3.50002 9.55118 3.50002 9.75009C3.50002 9.949 3.57904 10.1398 3.71969 10.2804C3.86034 10.4211 4.05111 10.5001 4.25002 10.5001C4.44893 10.5001 4.6397 10.4211 4.78035 10.2804C4.921 10.1398 5.00002 9.949 5.00002 9.75009C5.00002 9.55118 4.921 9.36041 4.78035 9.21976C4.6397 9.07911 4.44893 9.00009 4.25002 9.00009ZM6.75002 9.00009C6.55111 9.00009 6.36034 9.07911 6.21969 9.21976C6.07904 9.36041 6.00002 9.55118 6.00002 9.75009C6.00002 9.949 6.07904 10.1398 6.21969 10.2804C6.36034 10.4211 6.55111 10.5001 6.75002 10.5001C6.94893 10.5001 7.1397 10.4211 7.28035 10.2804C7.421 10.1398 7.50002 9.949 7.50002 9.75009C7.50002 9.55118 7.421 9.36041 7.28035 9.21976C7.1397 9.07911 6.94893 9.00009 6.75002 9.00009ZM9.25002 9.00009C9.05111 9.00009 8.86034 9.07911 8.71969 9.21976C8.57904 9.36041 8.50002 9.55118 8.50002 9.75009C8.50002 9.949 8.57904 10.1398 8.71969 10.2804C8.86034 10.4211 9.05111 10.5001 9.25002 10.5001C9.44893 10.5001 9.6397 10.4211 9.78035 10.2804C9.921 10.1398 10 9.949 10 9.75009C10 9.55118 9.921 9.36041 9.78035 9.21976C9.6397 9.07911 9.44893 9.00009 9.25002 9.00009ZM15.75 9.00009C15.5511 9.00009 15.3603 9.07911 15.2197 9.21976C15.079 9.36041 15 9.55118 15 9.75009C15 9.949 15.079 10.1398 15.2197 10.2804C15.3603 10.4211 15.5511 10.5001 15.75 10.5001C15.9489 10.5001 16.1397 10.4211 16.2804 10.2804C16.421 10.1398 16.5 9.949 16.5 9.75009C16.5 9.55118 16.421 9.36041 16.2804 9.21976C16.1397 9.07911 15.9489 9.00009 15.75 9.00009ZM18.25 9.00009C18.0511 9.00009 17.8603 9.07911 17.7197 9.21976C17.579 9.36041 17.5 9.55118 17.5 9.75009C17.5 9.949 17.579 10.1398 17.7197 10.2804C17.8603 10.4211 18.0511 10.5001 18.25 10.5001C18.4489 10.5001 18.6397 10.4211 18.7804 10.2804C18.921 10.1398 19 9.949 19 9.75009C19 9.55118 18.921 9.36041 18.7804 9.21976C18.6397 9.07911 18.4489 9.00009 18.25 9.00009Z" fill="#42526E"/>
</svg>
