<svg width="16" height="21" viewBox="0 0 16 21" fill="none" xmlns="http://www.w3.org/2000/svg">
<path fill-rule="evenodd" clip-rule="evenodd" d="M3 2.5C2.44772 2.5 2 2.94772 2 3.5V17.5C2 18.0523 2.44771 18.5 3 18.5H13C13.5523 18.5 14 18.0523 14 17.5L14 7.91421L8.58579 2.5H3ZM0 3.5C0 1.84315 1.34315 0.5 3 0.5H8.58579C9.11622 0.5 9.62493 0.710713 10 1.08579L15.4142 6.5C15.7893 6.87507 16 7.38378 16 7.91421V17.5C16 19.1569 14.6569 20.5 13 20.5H3C1.34315 20.5 0 19.1569 0 17.5V3.5ZM4 10.5C4 9.94771 4.44772 9.5 5 9.5H11C11.5523 9.5 12 9.94771 12 10.5C12 11.0523 11.5523 11.5 11 11.5H5C4.44772 11.5 4 11.0523 4 10.5ZM4 14.5C4 13.9477 4.44772 13.5 5 13.5H11C11.5523 13.5 12 13.9477 12 14.5C12 15.0523 11.5523 15.5 11 15.5H5C4.44772 15.5 4 15.0523 4 14.5Z" fill="#344563"/>
</svg>
