<svg width="352" height="200" viewBox="0 0 352 200" fill="none" xmlns="http://www.w3.org/2000/svg">
<path fill-rule="evenodd" clip-rule="evenodd" d="M187.635 143.712C227.336 143.712 259.566 147.216 259.566 151.531C259.566 155.846 227.334 159.35 187.635 159.35C147.936 159.35 115.703 155.846 115.703 151.531C115.703 147.216 147.936 143.712 187.635 143.712Z" fill="#00B09E" fill-opacity="0.2"/>
<path d="M123.658 123.582C123.245 123.582 122.866 123.357 122.677 122.96L93.2054 62.2476C93.0848 61.9885 93.0676 61.6776 93.1537 61.4185C93.257 61.1421 93.4465 60.9176 93.7049 60.7967L154.266 31.2436C154.421 31.1745 154.576 31.14 154.749 31.14C155.162 31.14 155.541 31.3645 155.731 31.7618L185.185 92.457C185.305 92.7161 185.322 93.027 185.236 93.2861C185.15 93.5625 184.943 93.787 184.685 93.9079L124.123 123.478C123.986 123.547 123.813 123.582 123.658 123.582Z" fill="white"/>
<path d="M154.732 32.2109L184.203 92.9407L123.658 122.494L94.1872 61.764L154.732 32.2109ZM154.732 30.0173C154.404 30.0173 154.077 30.0864 153.784 30.2418L93.2226 59.7949C92.7059 60.054 92.3097 60.5031 92.1202 61.0558C91.9308 61.6085 91.9652 62.2131 92.2236 62.7312L121.695 123.444C122.074 124.221 122.849 124.67 123.658 124.67C123.986 124.67 124.313 124.601 124.606 124.446L185.15 94.8925C185.667 94.6334 186.063 94.1843 186.253 93.6316C186.442 93.0789 186.408 92.4743 186.149 91.9562L156.695 31.2609C156.316 30.4836 155.541 30.0173 154.732 30.0173Z" fill="#006358"/>
<path d="M122.47 105.118C122.349 105.118 122.229 105.1 122.108 105.066C121.833 104.979 121.609 104.772 121.488 104.513L102.369 65.1148C102.248 64.8557 102.231 64.5448 102.317 64.2857C102.403 64.0093 102.61 63.7848 102.868 63.6639L150.839 40.2598C150.994 40.1907 151.149 40.1561 151.321 40.1561C151.735 40.1561 152.113 40.3807 152.303 40.7779L171.422 80.1763C171.543 80.4354 171.56 80.7463 171.474 81.0054C171.388 81.2817 171.181 81.5063 170.923 81.6272L122.952 105.014C122.797 105.083 122.642 105.118 122.47 105.118Z" fill="#74CAD0"/>
<path d="M151.321 41.2098L170.44 80.6081L122.47 104.03L103.351 64.6312L151.321 41.2098ZM151.321 39.0162C150.994 39.0162 150.667 39.0853 150.374 39.2407L102.403 62.6448C101.887 62.9039 101.49 63.353 101.301 63.9057C101.111 64.4584 101.129 65.063 101.387 65.5811L120.506 104.98C120.765 105.498 121.213 105.895 121.764 106.085C121.988 106.171 122.246 106.206 122.47 106.206C122.797 106.206 123.124 106.137 123.435 105.981L171.405 82.5945C171.922 82.3354 172.318 81.8863 172.507 81.3336C172.697 80.7809 172.662 80.1763 172.404 79.6582L153.285 40.2598C152.906 39.4825 152.131 39.0162 151.321 39.0162Z" fill="#006358"/>
<path d="M123.142 74.7183C120.403 74.7183 117.974 73.1983 116.786 70.7284C115.959 69.0184 115.838 67.1012 116.458 65.3048C117.079 63.5085 118.353 62.0749 120.041 61.2458C121.006 60.7622 122.056 60.5204 123.124 60.5204C125.863 60.5204 128.292 62.0404 129.48 64.5103C131.185 68.0166 129.721 72.2829 126.225 73.9929C125.26 74.4765 124.21 74.7183 123.142 74.7183Z" fill="#F9FAA5"/>
<path d="M123.124 61.6431C125.346 61.6431 127.465 62.8867 128.498 65.0112C129.945 67.982 128.705 71.5747 125.743 73.0256C124.899 73.4401 124.003 73.6301 123.142 73.6301C120.92 73.6301 118.801 72.3865 117.768 70.262C116.321 67.2911 117.561 63.6985 120.524 62.2476C121.35 61.8331 122.246 61.6431 123.124 61.6431ZM123.124 59.4495C121.884 59.4495 120.679 59.7258 119.559 60.2785C117.595 61.2285 116.131 62.904 115.408 64.9594C114.684 67.0148 114.822 69.2429 115.787 71.212C117.147 74.0101 120.024 75.8237 123.124 75.8237C124.365 75.8237 125.57 75.5474 126.69 74.9946C130.738 73.0256 132.426 68.1202 130.462 64.0612C129.119 61.2631 126.225 59.4495 123.124 59.4495Z" fill="#006358"/>
<path d="M123.262 104.738C123.056 104.738 122.849 104.686 122.677 104.565C122.349 104.358 122.16 104.012 122.16 103.632C122.16 102.924 122.349 86.3772 127.327 80.8846C128.447 79.641 130.342 79.0364 133.115 79.0364C142.072 79.0364 157.625 85.4618 158.28 85.7209C158.676 85.8936 158.934 86.2736 158.952 86.7054C158.969 87.1372 158.728 87.5345 158.332 87.7245L123.727 104.617C123.59 104.703 123.417 104.738 123.262 104.738Z" fill="#4BB486"/>
<path d="M133.115 80.1591C141.951 80.1591 157.866 86.7572 157.866 86.7572L123.262 103.65C123.262 103.65 123.4 86.8781 128.137 81.6445C129.101 80.5736 130.875 80.1591 133.115 80.1591ZM133.115 77.9655C130.014 77.9655 127.861 78.691 126.518 80.1591C121.35 85.859 121.075 101.819 121.075 103.632C121.075 104.392 121.454 105.1 122.091 105.498C122.453 105.722 122.849 105.843 123.262 105.843C123.589 105.843 123.917 105.774 124.227 105.619L158.814 88.7262C159.589 88.3462 160.071 87.5517 160.037 86.6881C160.019 85.8245 159.486 85.0645 158.693 84.7363C158.021 84.4599 142.278 77.9655 133.115 77.9655Z" fill="#006358"/>
<path d="M135.836 98.6061C135.612 98.6061 135.388 98.537 135.182 98.3988C134.854 98.157 134.682 97.7597 134.751 97.3452C134.906 96.3434 138.454 72.9565 143.363 67.5157C144.173 66.6348 145.31 66.1857 146.774 66.1857C154.439 66.1857 170.44 79.2091 171.112 79.7791C171.405 80.0209 171.543 80.3837 171.508 80.7637C171.474 81.1436 171.233 81.4546 170.905 81.6273L136.301 98.5197C136.163 98.5542 136.008 98.5888 135.836 98.6061Z" fill="#4BB486"/>
<path d="M146.791 67.2739C154.146 67.2739 170.44 80.6082 170.44 80.6082L135.836 97.5006C135.836 97.5006 139.419 73.4919 144.173 68.2584C144.793 67.5675 145.706 67.2739 146.791 67.2739ZM146.791 65.0803C144.569 65.0803 143.26 65.9957 142.571 66.773C137.524 72.352 134.062 94.6506 133.683 97.1724C133.563 97.9842 133.89 98.7787 134.544 99.2624C134.923 99.5387 135.388 99.6942 135.836 99.6942C136.163 99.6942 136.491 99.6251 136.784 99.4696L171.405 82.5945C172.077 82.2663 172.525 81.61 172.611 80.8673C172.697 80.1245 172.404 79.3818 171.818 78.9155C170.096 77.4991 154.697 65.0803 146.791 65.0803Z" fill="#006358"/>
<path d="M139.58 152.647C138.994 152.647 138.529 152.18 138.529 151.593V27.1626C138.529 26.5754 138.994 26.109 139.58 26.109H216.47C216.746 26.109 217.021 26.2126 217.211 26.4199L235.452 44.7114C235.641 44.9014 235.762 45.1778 235.762 45.4541V151.593C235.762 152.18 235.297 152.647 234.711 152.647H139.58Z" fill="white"/>
<path d="M216.487 27.1627L234.711 45.4541V151.593H139.58V27.1627H216.487ZM216.487 25.0727H139.58C138.426 25.0727 137.496 26.0054 137.496 27.1799V151.61C137.496 152.768 138.426 153.718 139.58 153.718H234.711C235.865 153.718 236.812 152.785 236.812 151.61V45.4541C236.812 44.9014 236.589 44.366 236.192 43.9687L217.969 25.6772C217.573 25.2972 217.039 25.0727 216.487 25.0727Z" fill="#006358"/>
<path d="M215.368 47.6304C215.092 47.6304 214.817 47.5268 214.627 47.3195C214.421 47.1123 214.3 46.8186 214.317 46.5077L215.437 27.1108C215.454 26.6963 215.73 26.3336 216.109 26.1954C216.229 26.1436 216.35 26.1263 216.487 26.1263C216.763 26.1263 217.021 26.2299 217.228 26.4372L235.469 44.7287C235.762 45.0223 235.848 45.4541 235.71 45.8514C235.572 46.2314 235.211 46.5077 234.797 46.525C234.78 46.5077 215.385 47.6304 215.368 47.6304Z" fill="#CCEFEC"/>
<path d="M216.488 27.1627L234.711 45.4541L215.368 46.5769L216.488 27.1627ZM216.488 25.0727C216.229 25.0727 215.988 25.1245 215.747 25.2109C214.972 25.5045 214.455 26.2299 214.403 27.059L213.284 46.4559C213.249 47.0605 213.473 47.6305 213.887 48.0623C214.283 48.4595 214.817 48.6841 215.368 48.6841C215.402 48.6841 215.454 48.6841 215.488 48.6841L234.832 47.5614C235.658 47.5096 236.382 46.9914 236.675 46.2141C236.968 45.4369 236.778 44.5732 236.192 43.986L217.969 25.6772C217.555 25.28 217.021 25.0727 216.488 25.0727Z" fill="#006358"/>
<path d="M219.398 57.5621H154.91C154.324 57.5621 153.859 57.0957 153.859 56.5085C153.859 55.9212 154.324 55.4548 154.91 55.4548H219.398C219.984 55.4548 220.449 55.9212 220.449 56.5085C220.449 57.0957 219.967 57.5621 219.398 57.5621Z" fill="#006358"/>
<path d="M219.398 68.7719H154.91C154.324 68.7719 153.859 68.3055 153.859 67.7183C153.859 67.131 154.324 66.6647 154.91 66.6647H219.398C219.984 66.6647 220.449 67.131 220.449 67.7183C220.449 68.3055 219.967 68.7719 219.398 68.7719Z" fill="#006358"/>
<path d="M219.398 79.9644H154.91C154.324 79.9644 153.859 79.4981 153.859 78.9108C153.859 78.3235 154.324 77.8572 154.91 77.8572H219.398C219.984 77.8572 220.449 78.3235 220.449 78.9108C220.449 79.4981 219.967 79.9644 219.398 79.9644Z" fill="#006358"/>
<path d="M219.398 91.1742H154.91C154.324 91.1742 153.859 90.7079 153.859 90.1206C153.859 89.5333 154.324 89.067 154.91 89.067H219.398C219.984 89.067 220.449 89.5333 220.449 90.1206C220.449 90.7079 219.967 91.1742 219.398 91.1742Z" fill="#006358"/>
<path d="M219.398 102.384H154.91C154.324 102.384 153.859 101.918 153.859 101.33C153.859 100.743 154.324 100.277 154.91 100.277H219.398C219.984 100.277 220.449 100.743 220.449 101.33C220.449 101.918 219.967 102.384 219.398 102.384Z" fill="#006358"/>
<path d="M195.499 113.72H154.795C154.425 113.72 154.132 113.315 154.132 112.805C154.132 112.295 154.425 111.89 154.795 111.89H195.499C195.868 111.89 196.162 112.295 196.162 112.805C196.162 113.315 195.857 113.72 195.499 113.72Z" fill="#006358"/>
<path d="M187.405 124.695H154.665C154.368 124.695 154.132 124.29 154.132 123.78C154.132 123.271 154.368 122.866 154.665 122.866H187.405C187.702 122.866 187.938 123.271 187.938 123.78C187.938 124.29 187.694 124.695 187.405 124.695Z" fill="#006358"/>
<path d="M238.084 173.484C237.099 173.484 235.629 173.145 234.307 171.539L223.591 158.554L220.71 160.941C219.799 161.693 218.829 162.091 217.903 162.091C216.139 162.091 214.831 160.764 214.464 158.612L210.157 133.158C209.922 131.758 210.186 130.519 210.892 129.679C211.509 128.942 212.421 128.544 213.464 128.544C214.037 128.544 214.655 128.662 215.272 128.898L239.407 137.889C240.95 138.464 241.964 139.525 242.185 140.807C242.405 142.09 241.788 143.431 240.524 144.478L237.643 146.865L248.358 159.836C250.269 162.15 250.019 164.965 247.756 166.852L241.274 172.232C240.303 173.057 239.201 173.484 238.084 173.484Z" fill="#74CAD0"/>
<path d="M213.464 129.65C213.89 129.65 214.376 129.738 214.89 129.93L239.025 138.921C241.479 139.835 241.832 141.942 239.818 143.623L236.085 146.718L247.506 160.543C249.167 162.563 248.667 164.656 247.05 165.997L240.568 171.377C239.818 171.996 238.951 172.364 238.069 172.364C237.055 172.364 236.026 171.893 235.144 170.817L223.724 156.991L219.99 160.086C219.255 160.691 218.535 160.986 217.888 160.986C216.742 160.986 215.816 160.086 215.537 158.436L211.23 132.981C210.892 130.932 211.847 129.65 213.464 129.65ZM213.464 127.439C212.083 127.439 210.877 127.984 210.04 128.957C209.114 130.063 208.761 131.61 209.055 133.335L213.361 158.789C213.817 161.457 215.596 163.182 217.888 163.182C219.079 163.182 220.299 162.695 221.401 161.781L223.43 160.101L233.439 172.232C234.689 173.75 236.335 174.59 238.069 174.59C239.451 174.59 240.803 174.074 241.979 173.101L248.461 167.721C251.195 165.452 251.504 161.929 249.211 159.143L239.201 147.013L241.23 145.332C242.817 144.021 243.552 142.296 243.273 140.616C242.993 138.936 241.715 137.565 239.789 136.843L215.654 127.852C214.919 127.586 214.184 127.439 213.464 127.439Z" fill="#006358"/>
<path d="M239.025 138.921L214.89 129.93C213.596 129.458 212.538 129.606 211.877 130.225L243.728 168.783L247.065 166.012C248.682 164.67 249.196 162.577 247.52 160.558L236.1 146.733L239.833 143.637C241.847 141.942 241.479 139.835 239.025 138.921Z" fill="white"/>
<path d="M207.647 127.195C207.354 127.195 207.061 127.074 206.854 126.867C206.648 126.66 206.527 126.383 206.527 126.09C206.527 125.779 206.648 125.503 206.854 125.295C207.061 125.088 207.337 124.967 207.629 124.967C207.939 124.967 208.215 125.088 208.422 125.295C208.628 125.503 208.749 125.796 208.749 126.09C208.749 126.383 208.628 126.66 208.422 126.884C208.215 127.074 207.939 127.195 207.647 127.195ZM205.373 124.881C205.08 124.881 204.787 124.76 204.581 124.553L204.236 124.207C203.961 123.913 203.84 123.499 203.961 123.119C203.857 123.136 203.771 123.153 203.668 123.153C203.375 123.153 203.082 123.033 202.875 122.825C202.669 122.618 202.548 122.324 202.548 122.031C202.548 121.737 202.669 121.461 202.875 121.236C203.082 121.029 203.358 120.908 203.65 120.908C203.943 120.908 204.236 121.029 204.443 121.236C204.65 121.444 204.77 121.737 204.77 122.031C204.77 122.134 204.753 122.238 204.736 122.324C204.839 122.29 204.925 122.29 205.028 122.29C205.321 122.29 205.614 122.411 205.821 122.618L206.165 122.963C206.596 123.395 206.596 124.103 206.165 124.535C205.941 124.76 205.666 124.881 205.373 124.881ZM201.377 120.839C201.084 120.839 200.791 120.718 200.584 120.511L200.24 120.165C199.947 119.872 199.844 119.457 199.964 119.077C199.861 119.112 199.775 119.112 199.672 119.112C199.379 119.112 199.086 118.991 198.879 118.784C198.673 118.576 198.552 118.3 198.552 117.989C198.552 117.695 198.673 117.402 198.879 117.194C199.086 116.987 199.362 116.866 199.654 116.866C199.947 116.866 200.24 116.987 200.447 117.194C200.653 117.402 200.774 117.695 200.774 117.989C200.774 118.093 200.757 118.196 200.74 118.3C200.843 118.265 200.929 118.265 201.032 118.265C201.325 118.265 201.618 118.386 201.825 118.594L202.169 118.939C202.6 119.371 202.6 120.079 202.169 120.511C201.962 120.718 201.687 120.839 201.377 120.839Z" fill="#008A7B"/>
<path d="M216.276 123.654C215.966 123.654 215.69 123.533 215.484 123.326C215.277 123.119 215.156 122.825 215.156 122.532C215.156 121.91 215.656 121.426 216.276 121.426C216.896 121.426 217.396 121.927 217.378 122.549C217.396 123.171 216.896 123.654 216.276 123.654ZM216.293 120.407C215.673 120.407 215.174 119.906 215.174 119.284V118.801C215.174 118.404 215.398 118.024 215.742 117.834C215.398 117.626 215.174 117.264 215.174 116.849C215.174 116.244 215.673 115.744 216.293 115.744C216.913 115.744 217.396 116.245 217.396 116.866C217.396 117.264 217.172 117.644 216.827 117.834C217.172 118.041 217.396 118.404 217.396 118.818V119.302C217.413 119.906 216.913 120.407 216.293 120.407ZM216.328 114.725C216.018 114.725 215.742 114.604 215.535 114.396C215.329 114.189 215.208 113.913 215.208 113.602V113.118C215.208 112.721 215.432 112.341 215.777 112.151C215.432 111.944 215.208 111.581 215.208 111.166C215.208 110.562 215.708 110.061 216.328 110.061C216.621 110.061 216.896 110.182 217.12 110.389C217.327 110.596 217.447 110.873 217.447 111.184C217.447 111.581 217.223 111.961 216.879 112.151C217.223 112.358 217.447 112.721 217.447 113.135V113.619C217.447 114.224 216.948 114.725 216.328 114.725Z" fill="#008A7B"/>
<path d="M204.029 135.797C203.719 135.797 203.444 135.676 203.237 135.469C203.03 135.261 202.91 134.968 202.91 134.674C202.91 134.07 203.409 133.569 204.029 133.569C204.322 133.569 204.598 133.69 204.822 133.897C205.028 134.104 205.149 134.381 205.149 134.691C205.132 135.313 204.632 135.797 204.029 135.797ZM200.791 135.78H200.292C199.896 135.78 199.517 135.555 199.327 135.21C199.12 135.555 198.759 135.78 198.363 135.78C197.76 135.78 197.26 135.279 197.26 134.674V134.657C197.26 134.052 197.76 133.551 198.38 133.551C198.776 133.551 199.155 133.776 199.344 134.121C199.551 133.776 199.913 133.551 200.309 133.551H200.808C201.101 133.551 201.394 133.672 201.601 133.88C201.807 134.087 201.928 134.381 201.928 134.674C201.894 135.279 201.394 135.78 200.791 135.78ZM195.124 135.745H194.625C194.229 135.745 193.85 135.521 193.66 135.175C193.471 135.521 193.092 135.745 192.696 135.745C192.093 135.745 191.593 135.244 191.593 134.64V134.622C191.593 134.018 192.093 133.517 192.713 133.517C193.109 133.517 193.488 133.741 193.677 134.087C193.884 133.741 194.246 133.517 194.642 133.517H195.124C195.744 133.517 196.244 134.018 196.227 134.64C196.227 135.261 195.727 135.745 195.124 135.745Z" fill="#008A7B"/>
<path d="M211.315 124.691C210.868 124.691 210.471 124.432 210.299 124.017C210.23 123.879 210.213 123.723 210.213 123.568C210.213 123.119 210.471 122.722 210.885 122.549C211.023 122.48 211.178 122.463 211.333 122.463C211.78 122.463 212.177 122.722 212.349 123.136C212.418 123.274 212.435 123.43 212.435 123.585C212.435 124.034 212.177 124.432 211.763 124.604C211.625 124.656 211.47 124.691 211.315 124.691ZM210.024 121.72C209.576 121.72 209.18 121.461 209.007 121.046L208.818 120.597C208.663 120.234 208.715 119.803 208.956 119.474C208.559 119.44 208.198 119.181 208.043 118.801C207.974 118.663 207.957 118.507 207.957 118.352C207.957 117.903 208.215 117.505 208.628 117.333C208.766 117.264 208.921 117.246 209.076 117.246C209.524 117.246 209.92 117.505 210.092 117.92C210.161 118.058 210.179 118.214 210.179 118.369C210.179 118.611 210.092 118.853 209.955 119.043C210.351 119.077 210.695 119.336 210.868 119.699L211.057 120.148C211.178 120.424 211.178 120.718 211.074 121.012C210.971 121.288 210.747 121.513 210.489 121.633C210.316 121.685 210.179 121.72 210.024 121.72ZM207.75 116.504C207.302 116.504 206.906 116.245 206.734 115.83L206.544 115.381C206.389 115.018 206.441 114.586 206.682 114.258C206.286 114.224 205.924 113.965 205.769 113.602C205.7 113.464 205.683 113.308 205.683 113.153C205.683 112.704 205.941 112.306 206.355 112.134C206.493 112.065 206.648 112.047 206.803 112.047C207.25 112.047 207.647 112.306 207.819 112.721C207.888 112.859 207.905 113.015 207.905 113.17C207.905 113.412 207.819 113.654 207.681 113.844C208.077 113.878 208.422 114.137 208.594 114.5L208.783 114.949C209.025 115.519 208.766 116.175 208.215 116.417C208.043 116.469 207.905 116.504 207.75 116.504Z" fill="#008A7B"/>
<path d="M220.634 124.501C220.496 124.501 220.358 124.483 220.238 124.432C219.807 124.259 219.531 123.862 219.531 123.395C219.531 123.257 219.549 123.119 219.6 122.981C219.773 122.549 220.186 122.273 220.634 122.273C220.772 122.273 220.909 122.29 221.03 122.342C221.461 122.514 221.736 122.912 221.736 123.378C221.736 123.516 221.719 123.654 221.667 123.793C221.512 124.224 221.099 124.501 220.634 124.501ZM221.822 121.478C221.685 121.478 221.547 121.443 221.426 121.409C221.151 121.305 220.927 121.098 220.806 120.822C220.686 120.545 220.686 120.252 220.789 119.958L220.961 119.509C221.116 119.129 221.443 118.87 221.84 118.801C221.685 118.594 221.581 118.352 221.581 118.093C221.581 117.954 221.598 117.816 221.667 117.678C221.84 117.246 222.236 116.97 222.701 116.97C222.839 116.97 222.976 116.987 223.114 117.039C223.545 117.212 223.82 117.609 223.82 118.075C223.82 118.214 223.786 118.352 223.734 118.49C223.579 118.87 223.252 119.129 222.856 119.181C223.114 119.492 223.183 119.923 223.028 120.303L222.856 120.753C222.684 121.202 222.287 121.478 221.822 121.478ZM223.872 116.175C223.734 116.175 223.596 116.141 223.476 116.106C222.908 115.882 222.615 115.225 222.839 114.655L223.011 114.206C223.166 113.826 223.493 113.567 223.889 113.515C223.734 113.308 223.631 113.066 223.631 112.807C223.631 112.669 223.648 112.531 223.7 112.393C223.872 111.961 224.268 111.685 224.733 111.685C224.871 111.685 225.009 111.719 225.147 111.771C225.577 111.944 225.853 112.341 225.853 112.807C225.853 112.945 225.818 113.084 225.784 113.222C225.646 113.602 225.302 113.861 224.906 113.913C225.164 114.224 225.233 114.655 225.078 115.035L224.906 115.485C224.751 115.899 224.337 116.175 223.872 116.175Z" fill="#008A7B"/>
<path d="M194.659 145.348C194.211 145.348 193.815 145.089 193.643 144.675C193.574 144.537 193.557 144.381 193.557 144.226C193.557 143.777 193.815 143.379 194.229 143.207C194.59 143.051 195.038 143.103 195.348 143.345C195.383 142.948 195.641 142.602 196.003 142.429L196.451 142.239C196.588 142.17 196.743 142.153 196.898 142.153C197.346 142.153 197.742 142.412 197.915 142.827C198.156 143.397 197.897 144.053 197.346 144.295L196.898 144.485C196.537 144.64 196.089 144.589 195.779 144.347C195.744 144.744 195.486 145.107 195.124 145.262C194.969 145.314 194.814 145.348 194.659 145.348ZM199.861 143.069C199.413 143.069 199.017 142.809 198.845 142.395C198.776 142.257 198.759 142.101 198.759 141.946C198.759 141.497 199.017 141.099 199.43 140.927C199.792 140.771 200.223 140.823 200.55 141.065C200.585 140.668 200.843 140.322 201.205 140.149L201.652 139.959C201.79 139.89 201.945 139.873 202.1 139.873C202.548 139.873 202.944 140.132 203.117 140.547C203.358 141.117 203.099 141.773 202.548 142.015L202.1 142.205C201.739 142.36 201.291 142.309 200.981 142.067C200.946 142.464 200.688 142.809 200.326 142.982C200.171 143.034 200.016 143.069 199.861 143.069ZM205.046 140.771C204.598 140.771 204.202 140.512 204.029 140.098C203.961 139.96 203.943 139.804 203.943 139.649C203.943 139.2 204.202 138.802 204.615 138.63C204.753 138.56 204.908 138.526 205.063 138.526C205.511 138.526 205.907 138.785 206.079 139.2C206.148 139.338 206.165 139.493 206.165 139.649C206.165 140.098 205.907 140.495 205.494 140.668C205.356 140.754 205.201 140.771 205.046 140.771Z" fill="#008A7B"/>
<path d="M204.856 131.427C204.718 131.427 204.581 131.41 204.46 131.358C204.029 131.185 203.754 130.788 203.754 130.321C203.754 130.183 203.771 130.045 203.823 129.907C203.995 129.475 204.391 129.199 204.856 129.199C204.994 129.199 205.132 129.216 205.27 129.268C205.7 129.441 205.976 129.838 205.976 130.304C205.976 130.442 205.941 130.581 205.907 130.719C205.735 131.151 205.321 131.427 204.856 131.427ZM201.842 130.252C201.704 130.252 201.566 130.235 201.429 130.166L200.981 129.993C200.602 129.838 200.343 129.51 200.274 129.112C199.964 129.372 199.534 129.441 199.155 129.285C198.724 129.112 198.449 128.715 198.449 128.249C198.449 128.111 198.483 127.972 198.535 127.834C198.707 127.402 199.103 127.126 199.568 127.126C199.706 127.126 199.844 127.143 199.964 127.195C200.343 127.351 200.602 127.679 200.653 128.076C200.963 127.817 201.394 127.748 201.773 127.903L202.221 128.076C202.496 128.18 202.72 128.404 202.841 128.663C202.962 128.94 202.962 129.233 202.858 129.51C202.72 129.976 202.307 130.252 201.842 130.252ZM196.571 128.18C196.433 128.18 196.296 128.145 196.175 128.093L195.727 127.921C195.348 127.782 195.09 127.437 195.021 127.04C194.711 127.299 194.28 127.368 193.919 127.212C193.488 127.04 193.212 126.642 193.212 126.176C193.212 126.038 193.23 125.9 193.281 125.762C193.454 125.33 193.867 125.053 194.315 125.053C194.453 125.053 194.59 125.088 194.711 125.14C195.09 125.278 195.348 125.623 195.417 126.021C195.727 125.762 196.158 125.693 196.537 125.848L196.985 126.021C197.26 126.124 197.484 126.332 197.605 126.608C197.725 126.884 197.725 127.178 197.622 127.472C197.432 127.903 197.036 128.18 196.571 128.18Z" fill="#008A7B"/>
<path d="M252.166 68.3444C252.517 68.6972 252.976 68.8735 253.437 68.8735C253.898 68.8735 254.357 68.6972 254.708 68.3444C255.412 67.6415 255.412 66.499 254.708 65.7935L253.198 64.2752L254.708 62.7569C255.412 62.0514 255.412 60.9114 254.708 60.2059C254.005 59.5005 252.869 59.5005 252.166 60.2059L250.653 61.7242L249.142 60.2059C248.439 59.5005 247.303 59.5005 246.599 60.2059C245.896 60.9088 245.896 62.0514 246.599 62.7569L248.11 64.2752L246.599 65.7935C245.896 66.499 245.896 67.639 246.599 68.3444C247.303 69.0499 248.439 69.0499 249.142 68.3444L250.653 66.8261L252.166 68.3444Z" fill="#00B09E" fill-opacity="0.2"/>
<path d="M106.985 38.6849C107.337 39.0376 107.795 39.214 108.256 39.214C108.718 39.214 109.176 39.0376 109.528 38.6849C110.231 37.982 110.231 36.8394 109.528 36.1339L108.014 34.6156L109.528 33.0973C110.231 32.3944 110.231 31.2519 109.528 30.5464C108.825 29.8409 107.688 29.8409 106.985 30.5464L105.472 32.0647L103.959 30.5464C103.256 29.8409 102.119 29.8409 101.416 30.5464C100.713 31.2493 100.713 32.3919 101.416 33.0973L102.929 34.6156L101.416 36.1339C100.713 36.8369 100.713 37.9794 101.416 38.6849C102.119 39.3904 103.256 39.3904 103.959 38.6849L105.472 37.1666L106.985 38.6849Z" fill="#00B09E" fill-opacity="0.2"/>
<path d="M108.256 135.113C107.795 135.113 107.337 134.937 106.985 134.584L105.472 133.066L103.959 134.584C103.256 135.289 102.119 135.289 101.416 134.584C100.713 133.879 100.713 132.736 101.416 132.033L102.929 130.515L101.416 128.996C100.713 128.291 100.713 127.151 101.416 126.445C102.117 125.74 103.256 125.74 103.959 126.445L105.472 127.964L106.985 126.445C107.688 125.74 108.825 125.74 109.528 126.445C110.231 127.151 110.231 128.294 109.528 128.996L108.014 130.515L109.528 132.033C110.231 132.736 110.231 133.879 109.528 134.584C109.176 134.937 108.718 135.113 108.256 135.113Z" fill="#00B09E" fill-opacity="0.2"/>
</svg>
