<svg width="18" height="16" viewBox="0 0 18 16" fill="none" xmlns="http://www.w3.org/2000/svg">
<path d="M9.46491 0.5C8.89675 0.5 8.42325 0.973502 8.42325 1.54167V1.75V3.29134L4.76439 4.41683C4.03921 4.6398 3.41977 5.12007 3.02204 5.76611L0.182688 10.3812C0.136514 10.4511 0.104871 10.5296 0.0896383 10.612C0.074406 10.6944 0.075896 10.779 0.0940198 10.8608C0.112144 10.9426 0.146531 11.02 0.195139 11.0882C0.243746 11.1565 0.30558 11.2143 0.376965 11.2581C0.44835 11.302 0.52783 11.3311 0.610678 11.3436C0.693525 11.3562 0.778051 11.3519 0.859228 11.3312C0.940406 11.3104 1.01658 11.2735 1.08322 11.2227C1.14986 11.1719 1.2056 11.1083 1.24714 11.0355L4.0865 6.42122C4.32544 6.0331 4.69742 5.746 5.13223 5.6123L8.42325 4.59912V7.3099L5.80362 8.92611C5.66246 9.01309 5.56164 9.15258 5.52334 9.3139C5.48503 9.47521 5.51237 9.64514 5.59935 9.78629C5.68634 9.92745 5.82583 10.0283 5.98714 10.0666C6.14846 10.1049 6.31839 10.0775 6.45954 9.99056L10.1713 7.70052C10.1737 7.69891 10.1762 7.69728 10.1786 7.69564C10.4442 7.52667 10.7819 7.56387 11.0038 7.78597C11.2736 8.05576 11.2673 8.47319 10.9908 8.73568V8.73649L5.83617 13.5119C5.83508 13.5127 5.834 13.5135 5.83292 13.5143C5.33019 13.9869 4.66726 14.25 3.97745 14.25H0.714915C0.632095 14.2488 0.549868 14.2641 0.473013 14.295C0.396158 14.3259 0.326207 14.3717 0.267226 14.4299C0.208245 14.4881 0.16141 14.5573 0.129443 14.6338C0.0974753 14.7102 0.0810132 14.7922 0.0810132 14.875C0.0810132 14.9578 0.0974753 15.0398 0.129443 15.1162C0.16141 15.1927 0.208245 15.2619 0.267226 15.3201C0.326207 15.3783 0.396158 15.4241 0.473013 15.455C0.549868 15.4859 0.632095 15.5012 0.714915 15.5H3.97745C4.98375 15.5 5.95219 15.1164 6.68578 14.4282L6.68741 14.4274L8.42325 12.8193V14.25V14.4583C8.42325 15.0265 8.89675 15.5 9.46491 15.5H9.67325H15.9232H16.1316C16.6997 15.5 17.1732 15.0265 17.1732 14.4583V14.25V1.75V1.54167C17.1732 0.973502 16.6997 0.5 16.1316 0.5H15.9232H9.67325H9.46491ZM10.9232 1.75H14.6732C14.6732 2.44042 15.2328 3 15.9232 3V13C15.2328 13 14.6732 13.5596 14.6732 14.25H10.9232C10.9232 13.5596 10.3637 13 9.67325 13V11.6613L11.6736 9.80827C12.0084 9.98474 12.3926 10.0833 12.7982 10.0833C14.0047 10.0833 15.0639 9.18544 15.0639 8C15.0639 6.81456 14.0047 5.91667 12.7982 5.91667C12.2045 5.91667 11.6552 6.12641 11.2431 6.48551C11.0818 6.42154 10.9148 6.3741 10.7434 6.35531C10.3809 6.31555 10.0102 6.38511 9.67325 6.5555V3C10.3637 3 10.9232 2.44042 10.9232 1.75ZM12.7982 3C12.5772 3 12.3653 3.0878 12.209 3.24408C12.0527 3.40036 11.9649 3.61232 11.9649 3.83333C11.9649 4.05435 12.0527 4.26631 12.209 4.42259C12.3653 4.57887 12.5772 4.66667 12.7982 4.66667C13.0193 4.66667 13.2312 4.57887 13.3875 4.42259C13.5438 4.26631 13.6316 4.05435 13.6316 3.83333C13.6316 3.61232 13.5438 3.40036 13.3875 3.24408C13.2312 3.0878 13.0193 3 12.7982 3ZM12.7982 7.16667C13.4043 7.16667 13.8139 7.57461 13.8139 8C13.8139 8.42539 13.4043 8.83333 12.7982 8.83333C12.6431 8.83333 12.4993 8.80396 12.371 8.75439C12.4974 8.28165 12.4407 7.77258 12.2017 7.33512C12.3664 7.23471 12.5682 7.16667 12.7982 7.16667ZM12.7982 11.3333C12.5772 11.3333 12.3653 11.4211 12.209 11.5774C12.0527 11.7337 11.9649 11.9457 11.9649 12.1667C11.9649 12.3877 12.0527 12.5996 12.209 12.7559C12.3653 12.9122 12.5772 13 12.7982 13C13.0193 13 13.2312 12.9122 13.3875 12.7559C13.5438 12.5996 13.6316 12.3877 13.6316 12.1667C13.6316 11.9457 13.5438 11.7337 13.3875 11.5774C13.2312 11.4211 13.0193 11.3333 12.7982 11.3333Z" fill="white"/>
</svg>
