<svg width="48" height="48" viewBox="0 0 48 48" fill="none" xmlns="http://www.w3.org/2000/svg">
<circle cx="24" cy="24" r="24" fill="#42526E"/>
<path fill-rule="evenodd" clip-rule="evenodd" d="M24 17C19.4678 17 16 20.2415 16 24C16 25.3518 16.438 26.619 17.2089 27.6991C17.4023 27.97 17.4482 28.3195 17.3313 28.6312L16.568 30.6666L19.5486 30.0705C19.7606 30.0281 19.9807 30.0555 20.1758 30.1488C21.3082 30.6899 22.6098 31 24 31C28.5323 31 32 27.7585 32 24C32 20.2415 28.5323 17 24 17ZM14 24C14 18.922 18.5911 15 24 15C29.4089 15 34 18.922 34 24C34 29.078 29.4089 33 24 33C22.4348 33 20.9486 32.6761 19.6232 32.0952L15.1961 32.9806C14.8401 33.0518 14.4734 32.9244 14.2382 32.6478C14.003 32.3712 13.9362 31.9888 14.0637 31.6489L15.2787 28.4087C14.4678 27.1108 14 25.6065 14 24ZM19 24C19 23.4477 19.4477 23 20 23H20.01C20.5623 23 21.01 23.4477 21.01 24C21.01 24.5523 20.5623 25 20.01 25H20C19.4477 25 19 24.5523 19 24ZM23 24C23 23.4477 23.4477 23 24 23H24.01C24.5623 23 25.01 23.4477 25.01 24C25.01 24.5523 24.5623 25 24.01 25H24C23.4477 25 23 24.5523 23 24ZM27 24C27 23.4477 27.4477 23 28 23H28.01C28.5623 23 29.01 23.4477 29.01 24C29.01 24.5523 28.5623 25 28.01 25H28C27.4477 25 27 24.5523 27 24Z" fill="white"/>
<circle cx="40" cy="6" r="5" fill="#DE350B" stroke="white" stroke-width="2"/>
</svg>
