<svg width="20" height="20" viewBox="0 0 20 20" fill="none" xmlns="http://www.w3.org/2000/svg">
<path fill-rule="evenodd" clip-rule="evenodd" d="M19.5999 9.99999C19.5999 15.3019 15.3018 19.6 9.9999 19.6C4.69797 19.6 0.399902 15.3019 0.399902 9.99999C0.399902 4.69806 4.69797 0.399994 9.9999 0.399994C15.3018 0.399994 19.5999 4.69806 19.5999 9.99999ZM9.99992 6.39999C9.55726 6.39999 9.16902 6.63905 8.95972 7.00086C8.62787 7.57454 7.8938 7.77057 7.32013 7.43872C6.74645 7.10687 6.55042 6.3728 6.88227 5.79912C7.50291 4.72621 8.6659 3.99999 9.99992 3.99999C11.9881 3.99999 13.5999 5.61177 13.5999 7.59999C13.5999 9.16746 12.5982 10.5009 11.1999 10.9951V11.2C11.1999 11.8627 10.6627 12.4 9.99992 12.4C9.33718 12.4 8.79992 11.8627 8.79992 11.2V9.99999C8.79992 9.33725 9.33718 8.79999 9.99992 8.79999C10.6627 8.79999 11.1999 8.26274 11.1999 7.59999C11.1999 6.93725 10.6627 6.39999 9.99992 6.39999ZM9.9999 16C10.6626 16 11.1999 15.4627 11.1999 14.8C11.1999 14.1373 10.6626 13.6 9.9999 13.6C9.33716 13.6 8.7999 14.1373 8.7999 14.8C8.7999 15.4627 9.33716 16 9.9999 16Z" fill="white"/>
</svg>
