<svg width="18" height="20" viewBox="0 0 18 20" fill="none" xmlns="http://www.w3.org/2000/svg">
<path d="M9.00001 0.399994C5.02356 0.399994 1.80001 3.62354 1.80001 7.59999V11.9029L0.951483 12.7515C0.608285 13.0947 0.505618 13.6108 0.691355 14.0592C0.877092 14.5076 1.31466 14.8 1.80001 14.8H16.2C16.6854 14.8 17.1229 14.5076 17.3087 14.0592C17.4944 13.6108 17.3917 13.0947 17.0485 12.7515L16.2 11.9029V7.59999C16.2 3.62354 12.9765 0.399994 9.00001 0.399994Z" fill="white"/>
<path d="M8.99998 19.6C7.01175 19.6 5.39998 17.9882 5.39998 16H12.6C12.6 17.9882 10.9882 19.6 8.99998 19.6Z" fill="white"/>
</svg>
