<svg width="18" height="19" viewBox="0 0 18 19" fill="none" xmlns="http://www.w3.org/2000/svg">
<path d="M15.25 0H2.75C1.234 0 0 1.234 0 2.75V13.75C0 15.266 1.234 16.5 2.75 16.5H5.989L8.4925 18.802C8.6355 18.934 8.818 19 9 19C9.1805 19 9.3615 18.935 9.5045 18.805L12.04 16.5H15.25C16.766 16.5 18 15.266 18 13.75V2.75C18 1.234 16.766 0 15.25 0ZM4.25 12C3.836 12 3.5 11.664 3.5 11.25C3.5 10.836 3.836 10.5 4.25 10.5C4.664 10.5 5 10.836 5 11.25C5 11.664 4.664 12 4.25 12ZM4.25 9C3.836 9 3.5 8.664 3.5 8.25C3.5 7.836 3.836 7.5 4.25 7.5C4.664 7.5 5 7.836 5 8.25C5 8.664 4.664 9 4.25 9ZM4.25 6C3.836 6 3.5 5.664 3.5 5.25C3.5 4.836 3.836 4.5 4.25 4.5C4.664 4.5 5 4.836 5 5.25C5 5.664 4.664 6 4.25 6ZM13.75 12H7.25C6.836 12 6.5 11.664 6.5 11.25C6.5 10.836 6.836 10.5 7.25 10.5H13.75C14.164 10.5 14.5 10.836 14.5 11.25C14.5 11.664 14.164 12 13.75 12ZM13.75 9H7.25C6.836 9 6.5 8.664 6.5 8.25C6.5 7.836 6.836 7.5 7.25 7.5H13.75C14.164 7.5 14.5 7.836 14.5 8.25C14.5 8.664 14.164 9 13.75 9ZM13.75 6H7.25C6.836 6 6.5 5.664 6.5 5.25C6.5 4.836 6.836 4.5 7.25 4.5H13.75C14.164 4.5 14.5 4.836 14.5 5.25C14.5 5.664 14.164 6 13.75 6Z" fill="#008A7B"/>
</svg>
