<svg width="15" height="14" viewBox="0 0 15 14" fill="none" xmlns="http://www.w3.org/2000/svg">
<path d="M2.83997 0C1.7354 0 0.839966 0.89543 0.839966 2V4C0.839966 5.10457 1.7354 6 2.83997 6H4.83997C5.94454 6 6.83997 5.10457 6.83997 4V2C6.83997 0.895431 5.94454 0 4.83997 0H2.83997Z" fill="white"/>
<path d="M2.83997 8C1.7354 8 0.839966 8.89543 0.839966 10V12C0.839966 13.1046 1.7354 14 2.83997 14H4.83997C5.94454 14 6.83997 13.1046 6.83997 12V10C6.83997 8.89543 5.94454 8 4.83997 8H2.83997Z" fill="white"/>
<path d="M8.83997 2C8.83997 0.89543 9.7354 0 10.84 0H12.84C13.9445 0 14.84 0.895431 14.84 2V4C14.84 5.10457 13.9445 6 12.84 6H10.84C9.7354 6 8.83997 5.10457 8.83997 4V2Z" fill="white"/>
<path d="M8.83997 10C8.83997 8.89543 9.7354 8 10.84 8H12.84C13.9445 8 14.84 8.89543 14.84 10V12C14.84 13.1046 13.9445 14 12.84 14H10.84C9.7354 14 8.83997 13.1046 8.83997 12V10Z" fill="white"/>
</svg>
