<svg width="22" height="16" viewBox="0 0 22 16" fill="none" xmlns="http://www.w3.org/2000/svg">
<path fill-rule="evenodd" clip-rule="evenodd" d="M2.51227 7.99997C3.74799 11.4965 7.0831 14 11.0005 14C14.9178 14 18.2529 11.4966 19.4886 8.00003C18.2529 4.50345 14.9178 2 11.0004 2C7.08311 2 3.74801 4.50342 2.51227 7.99997ZM0.504204 7.70031C1.90562 3.23842 6.07353 0 11.0004 0C15.9274 0 20.0953 3.23846 21.4967 7.70039C21.558 7.89546 21.558 8.10462 21.4967 8.29969C20.0953 12.7616 15.9274 16 11.0005 16C6.07353 16 1.9056 12.7615 0.504202 8.29961C0.442935 8.10454 0.442935 7.89538 0.504204 7.70031ZM11 6C9.89543 6 9 6.89543 9 8C9 9.10457 9.89543 10 11 10C12.1046 10 13 9.10457 13 8C13 6.89543 12.1046 6 11 6ZM7 8C7 5.79086 8.79086 4 11 4C13.2091 4 15 5.79086 15 8C15 10.2091 13.2091 12 11 12C8.79086 12 7 10.2091 7 8Z" fill="#B3BAC5"/>
</svg>
