<svg width="22" height="21" viewBox="0 0 22 21" fill="none" xmlns="http://www.w3.org/2000/svg">
<path d="M9.25003 0C8.01628 0 7.00003 1.01625 7.00003 2.25V6.75C7.00003 7.98375 8.01628 9 9.25003 9H15.75C16.9838 9 18 7.98375 18 6.75V2.25C18 1.01625 16.9838 0 15.75 0H9.25003ZM9.25003 1.5H15.75C16.1733 1.5 16.5 1.82675 16.5 2.25V6.75C16.5 7.17325 16.1733 7.5 15.75 7.5H9.25003C8.82678 7.5 8.50003 7.17325 8.50003 6.75V2.25C8.50003 1.82675 8.82678 1.5 9.25003 1.5ZM11.25 3C11.1506 2.99859 11.052 3.01696 10.9597 3.05402C10.8675 3.09108 10.7836 3.1461 10.7128 3.21588C10.642 3.28566 10.5858 3.36882 10.5475 3.46051C10.5091 3.5522 10.4893 3.65061 10.4893 3.75C10.4893 3.84939 10.5091 3.9478 10.5475 4.03949C10.5858 4.13118 10.642 4.21434 10.7128 4.28412C10.7836 4.3539 10.8675 4.40892 10.9597 4.44598C11.052 4.48304 11.1506 4.50141 11.25 4.5H13.75C13.8494 4.50141 13.9481 4.48304 14.0403 4.44598C14.1325 4.40892 14.2165 4.3539 14.2873 4.28412C14.358 4.21434 14.4142 4.13118 14.4526 4.03949C14.491 3.9478 14.5107 3.84939 14.5107 3.75C14.5107 3.65061 14.491 3.5522 14.4526 3.46051C14.4142 3.36882 14.358 3.28566 14.2873 3.21588C14.2165 3.1461 14.1325 3.09108 14.0403 3.05402C13.9481 3.01696 13.8494 2.99859 13.75 3H11.25ZM19.8067 9.00879C19.2466 9.01369 18.7145 9.23604 18.2422 9.58691C18.2419 9.58691 18.2416 9.58691 18.2412 9.58691C17.7356 9.96313 16.2094 11.1036 14.8887 12.0898C14.6023 11.1758 13.753 10.5 12.75 10.5H10.5537C9.14813 10.5 8.49188 10.3861 7.92874 10.2666C7.36561 10.1471 6.82319 10 5.91312 10C3.97073 10 2.5062 11.2465 1.54691 12.3955C0.587614 13.5445 0.0674126 14.6924 0.0674126 14.6924C0.0265395 14.782 0.00372665 14.8788 0.000276892 14.9773C-0.00317287 15.0758 0.0128081 15.174 0.047307 15.2662C0.0818059 15.3585 0.134147 15.4431 0.201341 15.5152C0.268535 15.5872 0.349265 15.6453 0.438921 15.6862C0.528577 15.727 0.625403 15.7498 0.723868 15.7533C0.822333 15.7567 0.920509 15.7407 1.01279 15.7062C1.10507 15.6716 1.18964 15.6193 1.26168 15.5521C1.33372 15.4849 1.39182 15.4041 1.43265 15.3145C1.43265 15.3145 1.88219 14.3349 2.69827 13.3574C3.51436 12.3799 4.63 11.5 5.91312 11.5C6.67354 11.5 7.00235 11.6029 7.61722 11.7334C8.23208 11.8639 9.06185 12 10.5537 12H12.75C13.1733 12 13.5 12.3268 13.5 12.75C13.5 12.9847 13.3971 13.1871 13.2354 13.3232C13.2352 13.3233 13.2149 13.3389 13.2149 13.3389C13.2005 13.3501 13.1864 13.3618 13.1729 13.374C13.1726 13.3743 13.1722 13.3747 13.1719 13.375C13.0527 13.4543 12.9083 13.5 12.75 13.5H9.25003C9.15065 13.4986 9.05197 13.517 8.95975 13.554C8.86752 13.5911 8.78358 13.6461 8.7128 13.7159C8.64203 13.7857 8.58582 13.8688 8.54746 13.9605C8.5091 14.0522 8.48935 14.1506 8.48935 14.25C8.48935 14.3494 8.5091 14.4478 8.54746 14.5395C8.58582 14.6312 8.64203 14.7143 8.7128 14.7841C8.78358 14.8539 8.86752 14.9089 8.95975 14.946C9.05197 14.983 9.15065 15.0014 9.25003 15H12.75C13.2203 15 13.6577 14.8507 14.0205 14.5996C14.0211 14.5992 14.0219 14.599 14.0225 14.5986C14.0538 14.5816 14.0838 14.5623 14.1123 14.541C14.1123 14.541 18.3868 11.349 19.1368 10.791C19.4189 10.5814 19.6538 10.5102 19.8194 10.5088C19.985 10.5073 20.109 10.5484 20.2803 10.7197C20.576 11.0154 20.5742 11.4668 20.2862 11.7666C17.6086 14.0181 15.9243 15.5184 14.8116 16.3975C13.685 17.2874 13.2125 17.5 12.75 17.5C10.9234 17.5 8.8999 17 6.75003 17C5.50003 17 4.62142 17.6718 4.15042 18.2998C3.67942 18.9278 3.52249 19.5684 3.52249 19.5684C3.49602 19.6648 3.48908 19.7655 3.5021 19.8646C3.51511 19.9637 3.54781 20.0593 3.59827 20.1456C3.64873 20.2319 3.71593 20.3072 3.79593 20.3672C3.87593 20.4271 3.9671 20.4705 4.0641 20.4947C4.1611 20.5189 4.26196 20.5235 4.36075 20.5082C4.45954 20.4929 4.55428 20.458 4.63938 20.4055C4.72448 20.353 4.79824 20.2841 4.85632 20.2027C4.9144 20.1213 4.95562 20.0292 4.97757 19.9316C4.97757 19.9316 5.07064 19.5722 5.34964 19.2002C5.62864 18.8282 6.00003 18.5 6.75003 18.5C8.65316 18.5 10.6676 19 12.75 19C13.701 19 14.5424 18.5222 15.7412 17.5752C16.9251 16.6399 18.5878 15.1547 21.25 12.916C21.2822 12.8934 21.3126 12.8682 21.3409 12.8408C21.3443 12.8374 21.3453 12.8326 21.3487 12.8291L21.3506 12.8311L21.377 12.8037C21.4502 12.7275 21.5064 12.6366 21.542 12.5371C22.1649 11.6608 22.124 10.4414 21.3409 9.6582C20.9262 9.24356 20.3667 9.00387 19.8067 9.00879Z" fill="#42526E"/>
</svg>
