<svg width="112" height="112" viewBox="0 0 112 112" fill="none" xmlns="http://www.w3.org/2000/svg">
<path d="M56 70C65.0206 70 72.3333 61.6426 72.3333 51.3333C72.3333 41.024 65.0206 32.6667 56 32.6667C46.9793 32.6667 39.6666 41.024 39.6666 51.3333C39.6666 61.6426 46.9793 70 56 70Z" fill="#00D6C2"/>
<path d="M88.6667 56C91.244 56 93.3333 53.9107 93.3333 51.3333C93.3333 48.756 91.244 46.6667 88.6667 46.6667C86.0893 46.6667 84 48.756 84 51.3333C84 53.9107 86.0893 56 88.6667 56Z" fill="#00D6C2"/>
<path d="M23.3333 56C25.9106 56 28 53.9107 28 51.3333C28 48.756 25.9106 46.6667 23.3333 46.6667C20.756 46.6667 18.6666 48.756 18.6666 51.3333C18.6666 53.9107 20.756 56 23.3333 56Z" fill="#00D6C2"/>
<path opacity="0.35" d="M84 100.949V107.333H107.333V100.949C107.333 97.6687 105.611 94.6307 102.802 92.946L95.6667 88.6667L88.5313 92.946C85.722 94.6353 84 97.6733 84 100.949Z" fill="#00D6C2"/>
<path opacity="0.35" d="M102.667 70V32.6667C102.667 27.51 98.49 23.3333 93.3334 23.3333H18.6667C13.51 23.3333 9.33337 27.51 9.33337 32.6667V70C9.33337 75.1567 13.51 79.3333 18.6667 79.3333H84.5414C85.2367 81.4053 86.604 83.2253 88.5314 84.3873L95.6667 88.6667L102.802 84.3873C105.611 82.698 107.333 79.66 107.333 76.384V74.6667C107.333 72.0907 107.333 70 107.333 70H102.667Z" fill="#00D6C2"/>
<path d="M107.333 112H84C81.424 112 79.3334 109.914 79.3334 107.333V100.954C79.3334 96.068 81.9374 91.4667 86.128 88.9467L86.5947 88.6667L86.1327 88.3867C81.9374 85.8667 79.3334 81.2653 79.3334 76.3793V70C79.3334 67.4193 81.424 65.3333 84 65.3333H107.333C109.909 65.3333 112 67.4193 112 70V76.3793C112 81.2653 109.396 85.8667 105.205 88.3867L104.739 88.6667L105.201 88.9467C109.396 91.4667 112 96.068 112 100.954V107.333C112 109.914 109.909 112 107.333 112ZM88.6667 102.667H102.667V100.954C102.667 99.3207 101.794 97.7853 100.399 96.95L95.6667 94.108L90.93 96.9453C89.5394 97.7853 88.6667 99.3207 88.6667 100.954V102.667ZM88.6667 74.6667V76.3793C88.6667 78.0127 89.5394 79.548 90.9347 80.3833L95.6667 83.2207L100.403 80.3833C101.794 79.548 102.667 78.0127 102.667 76.3793V74.6667H88.6667Z" fill="#00D6C2"/>
</svg>
