<svg width="20" height="16" viewBox="0 0 20 16" fill="none" xmlns="http://www.w3.org/2000/svg">
<path d="M2.75 0C1.24011 0 0 1.24011 0 2.75V5.75V8.75V13.25C0 14.7599 1.24011 16 2.75 16H17.25C18.7599 16 20 14.7599 20 13.25V8.75V5.75V2.75C20 1.24011 18.7599 0 17.25 0H2.75ZM2.75 1.5H17.25C17.9491 1.5 18.5 2.05089 18.5 2.75V3.30664C18.1239 3.11235 17.6996 3 17.25 3H2.75C2.3004 3 1.87614 3.11235 1.5 3.30664V2.75C1.5 2.05089 2.05089 1.5 2.75 1.5ZM2.75 4.5H17.25C17.9491 4.5 18.5 5.05089 18.5 5.75V6.30664C18.1239 6.11235 17.6996 6 17.25 6H13.0908C12.312 6 11.6569 6.53149 11.4229 7.22852C11.2235 7.82049 10.668 8.25 10 8.25C9.332 8.25 8.777 7.82016 8.57812 7.22852C8.34369 6.53266 7.68894 6 6.91016 6H2.75C2.3004 6 1.87614 6.11235 1.5 6.30664V5.75C1.5 5.05089 2.05089 4.5 2.75 4.5ZM2.75 7.5H6.91016C7.01738 7.5 7.10769 7.56289 7.15625 7.70703C7.55662 8.89695 8.68531 9.75 10 9.75C11.315 9.75 12.444 8.89706 12.8447 7.70703C12.8447 7.70671 12.8447 7.70638 12.8447 7.70605C12.8927 7.5631 12.9836 7.5 13.0908 7.5H17.25C17.9491 7.5 18.5 8.05089 18.5 8.75V13.25C18.5 13.9491 17.9491 14.5 17.25 14.5H2.75C2.05089 14.5 1.5 13.9491 1.5 13.25V8.75C1.5 8.05089 2.05089 7.5 2.75 7.5Z" fill="#42526E"/>
</svg>
