<svg width="20" height="16" viewBox="0 0 20 16" fill="none" xmlns="http://www.w3.org/2000/svg">
<path fill-rule="evenodd" clip-rule="evenodd" d="M0 4C0 1.79086 1.79086 0 4 0H16C18.2091 0 20 1.79086 20 4V12C20 14.2091 18.2091 16 16 16H4C1.79086 16 0 14.2091 0 12V4ZM2 7V12C2 13.1046 2.89543 14 4 14H16C17.1046 14 18 13.1046 18 12V7H2ZM18 5H2V4C2 2.89543 2.89543 2 4 2H16C17.1046 2 18 2.89543 18 4V5ZM4 11C4 10.4477 4.44772 10 5 10H6C6.55228 10 7 10.4477 7 11C7 11.5523 6.55228 12 6 12H5C4.44772 12 4 11.5523 4 11ZM9 11C9 10.4477 9.44771 10 10 10H11C11.5523 10 12 10.4477 12 11C12 11.5523 11.5523 12 11 12H10C9.44771 12 9 11.5523 9 11Z" fill="white"/>
</svg>
