<svg width="22" height="21" viewBox="0 0 22 21" fill="none" xmlns="http://www.w3.org/2000/svg">
<path d="M9.24997 0C8.01622 0 6.99997 1.01625 6.99997 2.25V6.75C6.99997 7.98375 8.01622 9 9.24997 9H15.75C16.9837 9 18 7.98375 18 6.75V2.25C18 1.01625 16.9837 0 15.75 0H9.24997ZM9.24997 1.5H15.75C16.1732 1.5 16.5 1.82675 16.5 2.25V6.75C16.5 7.17325 16.1732 7.5 15.75 7.5H9.24997C8.82672 7.5 8.49997 7.17325 8.49997 6.75V2.25C8.49997 1.82675 8.82672 1.5 9.24997 1.5ZM11.25 3C11.1506 2.99859 11.0519 3.01696 10.9597 3.05402C10.8675 3.09108 10.7835 3.1461 10.7127 3.21588C10.642 3.28566 10.5858 3.36882 10.5474 3.46051C10.509 3.5522 10.4893 3.65061 10.4893 3.75C10.4893 3.84939 10.509 3.9478 10.5474 4.03949C10.5858 4.13118 10.642 4.21434 10.7127 4.28412C10.7835 4.3539 10.8675 4.40892 10.9597 4.44598C11.0519 4.48304 11.1506 4.50141 11.25 4.5H13.75C13.8494 4.50141 13.948 4.48304 14.0403 4.44598C14.1325 4.40892 14.2164 4.3539 14.2872 4.28412C14.358 4.21434 14.4142 4.13118 14.4525 4.03949C14.4909 3.9478 14.5107 3.84939 14.5107 3.75C14.5107 3.65061 14.4909 3.5522 14.4525 3.46051C14.4142 3.36882 14.358 3.28566 14.2872 3.21588C14.2164 3.1461 14.1325 3.09108 14.0403 3.05402C13.948 3.01696 13.8494 2.99859 13.75 3H11.25ZM19.8066 9.00879C19.2466 9.01369 18.7145 9.23604 18.2422 9.58691C18.2418 9.58691 18.2415 9.58691 18.2412 9.58691C17.7355 9.96313 16.2094 11.1036 14.8886 12.0898C14.6023 11.1758 13.7529 10.5 12.75 10.5H10.5537C9.14807 10.5 8.49182 10.3861 7.92868 10.2666C7.36554 10.1471 6.82313 10 5.91305 10C3.97067 10 2.50613 11.2465 1.54684 12.3955C0.587553 13.5445 0.0673516 14.6924 0.0673516 14.6924C0.0264785 14.782 0.00366562 14.8788 0.000215857 14.9773C-0.0032339 15.0758 0.012747 15.174 0.047246 15.2662C0.0817449 15.3585 0.134086 15.4431 0.20128 15.5152C0.268474 15.5872 0.349204 15.6453 0.43886 15.6862C0.528516 15.727 0.625342 15.7498 0.723807 15.7533C0.822272 15.7567 0.920448 15.7407 1.01273 15.7062C1.10501 15.6716 1.18958 15.6193 1.26162 15.5521C1.33366 15.4849 1.39176 15.4041 1.43259 15.3145C1.43259 15.3145 1.88213 14.3349 2.69821 13.3574C3.5143 12.3799 4.62994 11.5 5.91305 11.5C6.67348 11.5 7.00229 11.6029 7.61716 11.7334C8.23202 11.8639 9.06179 12 10.5537 12H12.75C13.1732 12 13.5 12.3268 13.5 12.75C13.5 12.9847 13.3971 13.1871 13.2353 13.3232C13.2352 13.3233 13.2148 13.3389 13.2148 13.3389C13.2004 13.3501 13.1864 13.3618 13.1728 13.374C13.1725 13.3743 13.1722 13.3747 13.1718 13.375C13.0526 13.4543 12.9082 13.5 12.75 13.5H9.24997C9.15059 13.4986 9.05191 13.517 8.95969 13.554C8.86746 13.5911 8.78352 13.6461 8.71274 13.7159C8.64197 13.7857 8.58576 13.8688 8.5474 13.9605C8.50904 14.0522 8.48929 14.1506 8.48929 14.25C8.48929 14.3494 8.50904 14.4478 8.5474 14.5395C8.58576 14.6312 8.64197 14.7143 8.71274 14.7841C8.78352 14.8539 8.86746 14.9089 8.95969 14.946C9.05191 14.983 9.15059 15.0014 9.24997 15H12.75C13.2203 15 13.6576 14.8507 14.0205 14.5996C14.0211 14.5992 14.0218 14.599 14.0224 14.5986C14.0537 14.5816 14.0837 14.5623 14.1123 14.541C14.1123 14.541 18.3868 11.349 19.1367 10.791C19.4189 10.5814 19.6537 10.5102 19.8193 10.5088C19.9849 10.5073 20.1089 10.5484 20.2802 10.7197C20.5759 11.0154 20.5742 11.4668 20.2861 11.7666C17.6085 14.0181 15.9242 15.5184 14.8115 16.3975C13.6849 17.2874 13.2125 17.5 12.75 17.5C10.9234 17.5 8.89983 17 6.74997 17C5.49997 17 4.62136 17.6718 4.15036 18.2998C3.67936 18.9278 3.52243 19.5684 3.52243 19.5684C3.49596 19.6648 3.48902 19.7655 3.50204 19.8646C3.51505 19.9637 3.54775 20.0593 3.59821 20.1456C3.64867 20.2319 3.71587 20.3072 3.79587 20.3672C3.87587 20.4271 3.96704 20.4705 4.06404 20.4947C4.16104 20.5189 4.2619 20.5235 4.36069 20.5082C4.45948 20.4929 4.55421 20.458 4.63932 20.4055C4.72442 20.353 4.79818 20.2841 4.85626 20.2027C4.91434 20.1213 4.95556 20.0292 4.97751 19.9316C4.97751 19.9316 5.07058 19.5722 5.34958 19.2002C5.62858 18.8282 5.99997 18.5 6.74997 18.5C8.6531 18.5 10.6676 19 12.75 19C13.701 19 14.5424 18.5222 15.7412 17.5752C16.9251 16.6399 18.5878 15.1547 21.25 12.916C21.2822 12.8934 21.3125 12.8682 21.3408 12.8408C21.3442 12.8374 21.3452 12.8326 21.3486 12.8291L21.3506 12.8311L21.3769 12.8037C21.4501 12.7275 21.5063 12.6366 21.542 12.5371C22.1648 11.6608 22.124 10.4414 21.3408 9.6582C20.9261 9.24356 20.3666 9.00387 19.8066 9.00879Z" fill="white"/>
</svg>
