<svg width="14" height="18" viewBox="0 0 14 18" fill="none" xmlns="http://www.w3.org/2000/svg">
<path fill-rule="evenodd" clip-rule="evenodd" d="M3.80896 2.33317C4.15216 1.36218 5.07819 0.666504 6.16671 0.666504H7.83337C8.92189 0.666504 9.84792 1.36218 10.1911 2.33317H11.1667C12.5474 2.33317 13.6667 3.45246 13.6667 4.83317V14.8332C13.6667 16.2139 12.5474 17.3332 11.1667 17.3332H2.83337C1.45266 17.3332 0.333374 16.2139 0.333374 14.8332V4.83317C0.333374 3.45246 1.45266 2.33317 2.83337 2.33317H3.80896ZM3.80896 3.99984H2.83337C2.37314 3.99984 2.00004 4.37293 2.00004 4.83317V14.8332C2.00004 15.2934 2.37314 15.6665 2.83337 15.6665H11.1667C11.6269 15.6665 12 15.2934 12 14.8332V4.83317C12 4.37293 11.6269 3.99984 11.1667 3.99984H10.1911C9.84792 4.97083 8.92189 5.6665 7.83337 5.6665H6.16671C5.07819 5.6665 4.15216 4.97083 3.80896 3.99984ZM6.16671 2.33317C5.70647 2.33317 5.33337 2.70627 5.33337 3.1665C5.33337 3.62674 5.70647 3.99984 6.16671 3.99984H7.83337C8.29361 3.99984 8.66671 3.62674 8.66671 3.1665C8.66671 2.70627 8.29361 2.33317 7.83337 2.33317H6.16671ZM3.66671 8.99984C3.66671 8.5396 4.0398 8.1665 4.50004 8.1665H4.50837C4.96861 8.1665 5.34171 8.5396 5.34171 8.99984C5.34171 9.46007 4.96861 9.83317 4.50837 9.83317H4.50004C4.0398 9.83317 3.66671 9.46007 3.66671 8.99984ZM6.16671 8.99984C6.16671 8.5396 6.5398 8.1665 7.00004 8.1665H9.50004C9.96028 8.1665 10.3334 8.5396 10.3334 8.99984C10.3334 9.46007 9.96028 9.83317 9.50004 9.83317H7.00004C6.5398 9.83317 6.16671 9.46007 6.16671 8.99984ZM3.66671 12.3332C3.66671 11.8729 4.0398 11.4998 4.50004 11.4998H4.50837C4.96861 11.4998 5.34171 11.8729 5.34171 12.3332C5.34171 12.7934 4.96861 13.1665 4.50837 13.1665H4.50004C4.0398 13.1665 3.66671 12.7934 3.66671 12.3332ZM6.16671 12.3332C6.16671 11.8729 6.5398 11.4998 7.00004 11.4998H9.50004C9.96028 11.4998 10.3334 11.8729 10.3334 12.3332C10.3334 12.7934 9.96028 13.1665 9.50004 13.1665H7.00004C6.5398 13.1665 6.16671 12.7934 6.16671 12.3332Z" fill="white"/>
</svg>
