<svg width="20" height="20" viewBox="0 0 20 20" fill="none" xmlns="http://www.w3.org/2000/svg">
<path fill-rule="evenodd" clip-rule="evenodd" d="M11.787 1.80503C11.3321 -0.0684739 8.66767 -0.0684747 8.21284 1.80503C7.91903 3.01529 6.53244 3.58964 5.4689 2.94161C3.82252 1.93845 1.93845 3.82252 2.94161 5.4689C3.58964 6.53244 3.01529 7.91902 1.80503 8.21284C-0.0684747 8.66767 -0.0684739 11.3321 1.80503 11.787C3.01529 12.0808 3.58964 13.4674 2.94161 14.5309C1.93845 16.1773 3.82252 18.0614 5.4689 17.0582C6.53244 16.4102 7.91903 16.9845 8.21284 18.1948C8.66767 20.0683 11.3321 20.0683 11.787 18.1948C12.0808 16.9845 13.4674 16.4102 14.5309 17.0582C16.1773 18.0614 18.0614 16.1773 17.0582 14.5309C16.4102 13.4674 16.9845 12.0808 18.1948 11.787C20.0683 11.3321 20.0683 8.66767 18.1948 8.21284C16.9845 7.91902 16.4102 6.53244 17.0582 5.4689C18.0614 3.82252 16.1773 1.93845 14.5309 2.94161C13.4674 3.58964 12.0808 3.01529 11.787 1.80503ZM9.9999 13.5999C11.9881 13.5999 13.5999 11.9881 13.5999 9.9999C13.5999 8.01168 11.9881 6.3999 9.9999 6.3999C8.01168 6.3999 6.3999 8.01168 6.3999 9.9999C6.3999 11.9881 8.01168 13.5999 9.9999 13.5999Z" fill="white"/>
</svg>
