<svg width="30" height="28" viewBox="0 0 30 28" fill="none" xmlns="http://www.w3.org/2000/svg">
<path opacity="0.35" d="M23.426 6.61621H2.68524C1.25284 6.61621 0.0926514 7.76762 0.0926514 9.18918V16.9081C0.0926514 18.3297 1.25284 19.4811 2.68524 19.4811H23.426C24.8584 19.4811 26.0186 18.3297 26.0186 16.9081V9.18918C26.0186 7.76762 24.8584 6.61621 23.426 6.61621Z" fill="white"/>
<path d="M13.0555 16.9081C15.2033 16.9081 16.9444 15.1802 16.9444 13.0486C16.9444 10.9171 15.2033 9.18918 13.0555 9.18918C10.9077 9.18918 9.16663 10.9171 9.16663 13.0486C9.16663 15.1802 10.9077 16.9081 13.0555 16.9081Z" fill="white"/>
<path d="M20.8333 14.3351C21.5492 14.3351 22.1296 13.7592 22.1296 13.0487C22.1296 12.3382 21.5492 11.7622 20.8333 11.7622C20.1174 11.7622 19.537 12.3382 19.537 13.0487C19.537 13.7592 20.1174 14.3351 20.8333 14.3351Z" fill="white"/>
<path d="M5.27774 14.3351C5.99367 14.3351 6.57404 13.7592 6.57404 13.0487C6.57404 12.3382 5.99367 11.7622 5.27774 11.7622C4.56182 11.7622 3.98145 12.3382 3.98145 13.0487C3.98145 13.7592 4.56182 14.3351 5.27774 14.3351Z" fill="white"/>
<path d="M3.95947 19.4811V23.558C3.95947 25.6897 5.7004 27.4174 7.84836 27.4174H19.318C20.2785 27.4174 21.2054 27.0649 21.9197 26.4268L25.4547 23.2685L28.4128 22.7809C29.7454 22.5609 30.3119 20.9863 29.4395 19.9622C28.733 19.1337 27.6843 18.412 26.1741 18.412C23.8848 18.412 20.8126 19.4811 20.8126 19.4811H3.95947Z" fill="white"/>
<path d="M20.8333 6.61621C20.8333 5.6655 20.8333 4.53853 20.8333 4.04324C20.8333 2.62167 19.6731 1.47026 18.2407 1.47026C17.7027 1.47026 17.2037 1.63236 16.7889 1.91153C16.4363 0.908069 15.4835 0.183777 14.3518 0.183777C13.2201 0.183777 12.2674 0.908069 11.9148 1.91153C11.5 1.63236 11.0009 1.47026 10.4629 1.47026C9.03052 1.47026 7.87033 2.62167 7.87033 4.04324C7.87033 4.22463 7.87033 4.49479 7.87033 4.80612C7.4633 4.3417 6.87089 4.04324 6.2033 4.04324C4.9757 4.04324 3.98145 5.02997 3.98145 6.24827C3.98145 6.34347 3.98145 6.47341 3.98145 6.61621H20.8333Z" fill="white"/>
</svg>
