<svg width="352" height="200" viewBox="0 0 352 200" fill="none" xmlns="http://www.w3.org/2000/svg">
<path fill-rule="evenodd" clip-rule="evenodd" d="M178.441 159.334C215.972 159.334 246.44 162.636 246.44 166.702C246.44 170.768 215.97 174.071 178.441 174.071C140.912 174.071 110.442 170.768 110.442 166.702C110.442 162.636 140.912 159.334 178.441 159.334Z" fill="#00B09E" fill-opacity="0.2"/>
<path d="M85.8961 133.059C85.4602 133.059 85.0267 132.893 84.6943 132.56L83.2638 131.13L81.8332 132.56C81.1685 133.225 80.0944 133.225 79.4297 132.56C78.765 131.896 78.765 130.819 79.4297 130.157L80.8603 128.726L79.4297 127.295C78.765 126.63 78.765 125.553 79.4297 124.891C80.0944 124.226 81.1685 124.226 81.8332 124.891L83.2638 126.322L84.6943 124.891C85.359 124.226 86.4331 124.226 87.0978 124.891C87.7625 125.556 87.7625 126.632 87.0978 127.295L85.6673 128.726L87.0978 130.157C87.7625 130.821 87.7625 131.898 87.0978 132.56C86.7655 132.893 86.332 133.059 85.8961 133.059ZM273.3 96.4218C272.864 96.4218 272.43 96.2556 272.098 95.9231L270.667 94.4923L269.239 95.9231C268.575 96.588 267.5 96.588 266.836 95.9231C266.171 95.2583 266.171 94.184 266.836 93.5192L268.264 92.0884L266.836 90.6576C266.171 89.9928 266.171 88.916 266.836 88.2536C267.5 87.5888 268.575 87.5888 269.239 88.2536L270.667 89.6844L272.098 88.2536C272.763 87.5888 273.837 87.5888 274.501 88.2536C275.166 88.9185 275.166 89.9928 274.501 90.6576L273.073 92.0884L274.501 93.5192C275.166 94.184 275.166 95.2607 274.501 95.9231C274.169 96.2556 273.736 96.4218 273.3 96.4218ZM102.896 42.3763C102.461 42.3763 102.027 42.2101 101.695 41.8777L100.264 40.4469L98.8336 41.8777C98.1689 42.5425 97.0948 42.5425 96.4301 41.8777C95.7654 41.2129 95.7654 40.1361 96.4301 39.4737L97.8606 38.0429L96.4301 36.6121C95.7654 35.9473 95.7654 34.873 96.4301 34.2082C97.0924 33.5433 98.1689 33.5433 98.8336 34.2082L100.264 35.639L101.695 34.2082C102.359 33.5433 103.433 33.5433 104.098 34.2082C104.763 34.873 104.763 35.9497 104.098 36.6121L102.668 38.0429L104.098 39.4737C104.763 40.1361 104.763 41.2129 104.098 41.8777C103.766 42.2101 103.332 42.3763 102.896 42.3763Z" fill="#00B09E" fill-opacity="0.2"/>
<path d="M179.235 95.928C179.235 95.928 179.385 93.3337 182.304 91.8403C190.853 87.4563 207.844 78.7053 213.046 69.0775C221.559 53.3241 217.8 38.2718 215.038 31.0912L213.968 28.3115C213.463 27.4299 212.008 26.7121 210.739 26.7121H143.197C141.926 26.7121 140.473 27.4323 139.968 28.3115L138.898 31.0936C136.136 38.2742 132.377 53.3265 140.89 69.0799C146.092 78.7077 163.08 87.4588 171.632 91.8427C174.551 93.3385 174.701 95.9304 174.701 95.9304C174.701 95.9304 174.551 98.5222 171.632 100.018C163.083 104.402 146.092 113.153 140.89 122.778C132.377 138.532 136.136 153.587 138.898 160.765L139.968 163.547C140.473 164.426 141.928 165.146 143.197 165.146H210.736C212.005 165.146 213.46 164.426 213.966 163.547L215.035 160.765C217.797 153.587 221.557 138.532 213.043 122.778C207.841 113.153 190.851 104.4 182.301 100.018C179.382 98.5222 179.233 95.9304 179.233 95.9304L179.235 95.928Z" fill="white"/>
<path d="M215.772 145.546C213.292 143.371 200.939 141.574 197.539 138.592C194.136 135.61 182.304 124.932 176.967 124.932C172.377 124.932 166.144 137.272 160.373 139.902C155.017 142.342 141.707 146.18 138.607 151.094C139.224 154.627 140.17 157.645 141.052 159.934L142.005 162.41C142.217 162.583 142.737 162.834 143.197 162.834H210.736C211.196 162.834 211.716 162.583 211.928 162.41L212.882 159.934C214.19 156.537 215.642 151.537 215.938 145.628C215.835 145.573 215.775 145.544 215.775 145.544L215.772 145.546Z" fill="#00B09E" fill-opacity="0.2"/>
<path d="M198.692 64.9609C190.844 64.9609 181.764 72.4473 176.967 72.4473C172.533 72.4473 160.219 67.2131 155.14 65.6763C151.157 64.4671 145.143 64.6766 141.805 65.7534C142.15 66.4929 142.518 67.2348 142.92 67.9791C147.814 77.036 164.612 85.6474 172.685 89.7832C175.669 91.3128 176.752 93.9046 176.969 95.4342C177.184 93.9022 178.27 91.3104 181.254 89.7832C189.326 85.645 206.124 77.036 211.018 67.9791C211.271 67.5118 211.514 67.0445 211.743 66.5748C207.666 65.3342 201.387 64.9585 198.697 64.9585L198.692 64.9609Z" fill="#00B09E" fill-opacity="0.2"/>
<path d="M216.976 154.487C216.389 156.954 215.683 159.076 215.038 160.762L213.966 163.549C213.458 164.426 212.008 165.146 210.739 165.146H143.193C141.923 165.146 140.474 164.426 139.965 163.549L138.896 160.762C138.248 159.079 137.543 156.954 136.955 154.487H216.974H216.976Z" fill="#00B09E"/>
<path d="M136.955 37.3661H216.974C216.386 34.8995 215.681 32.7774 215.035 31.0912L213.963 28.3067C213.455 27.4299 212.006 26.7073 210.736 26.7073H143.193C141.923 26.7073 140.474 27.4275 139.965 28.3067L138.896 31.0912C138.248 32.7774 137.543 34.9019 136.955 37.3661Z" fill="#00B09E"/>
<path d="M210.736 166.844H143.197C141.321 166.844 139.298 165.792 138.494 164.395C138.45 164.318 138.412 164.238 138.381 164.156L137.311 161.374C134.327 153.62 130.628 138.19 139.395 121.969C144.878 111.823 162.423 102.827 170.857 98.5029C172.533 97.643 172.909 96.3302 172.988 95.9232C172.914 95.5426 172.545 94.2178 170.859 93.353C162.428 89.0293 144.881 80.0349 139.397 69.8868C138.951 69.0606 139.26 68.0296 140.083 67.5816C140.909 67.1336 141.94 67.4419 142.388 68.2681C147.371 77.4913 164.282 86.1604 172.41 90.3252C175.399 91.8548 176.324 94.5044 176.401 95.8292C176.406 95.8943 176.406 95.9593 176.401 96.0243C176.324 97.3467 175.399 99.9964 172.41 101.526C164.282 105.693 147.371 114.365 142.388 123.583C134.27 138.604 137.714 152.941 140.488 160.148L141.49 162.757C141.721 163.027 142.482 163.441 143.2 163.441H210.739C211.459 163.441 212.217 163.029 212.449 162.757L213.45 160.148C216.227 152.939 219.669 138.604 211.55 123.581C210.43 121.507 208.598 119.303 206.105 117.029C205.411 116.395 205.361 115.321 205.994 114.627C206.628 113.933 207.702 113.885 208.395 114.516C211.172 117.048 213.241 119.556 214.541 121.964C223.305 138.185 219.606 153.616 216.622 161.369L215.555 164.151C215.524 164.233 215.485 164.315 215.442 164.39C214.635 165.787 212.615 166.84 210.739 166.84L210.736 166.844ZM182.301 101.716C182.041 101.716 181.776 101.656 181.528 101.528C178.539 99.9964 177.612 97.3491 177.538 96.0267C177.533 95.9617 177.533 95.8967 177.538 95.8316C177.615 94.5068 178.542 91.8572 181.528 90.3276C189.656 86.1604 206.567 77.4889 211.55 68.2705C219.666 53.2495 216.225 38.9125 213.45 31.7055L212.449 29.0968C212.215 28.827 211.456 28.4127 210.739 28.4127H143.197C142.477 28.4127 141.719 28.8246 141.487 29.0968L140.483 31.7055C140.148 32.5823 139.166 33.0207 138.287 32.681C137.41 32.3438 136.974 31.361 137.311 30.4842L138.381 27.7021C138.412 27.6202 138.45 27.5407 138.494 27.4636C139.298 26.0665 141.321 25.0115 143.197 25.0115H210.736C212.612 25.0115 214.635 26.0665 215.44 27.4636C215.483 27.5407 215.522 27.6202 215.553 27.7021L216.622 30.4818C219.606 38.2356 223.303 53.6662 214.539 69.8868C209.055 80.0349 191.511 89.0317 183.079 93.353C181.4 94.2129 181.027 95.5257 180.948 95.9352C181.02 96.3134 181.391 97.6382 183.077 98.5029C183.912 98.9317 184.242 99.9554 183.816 100.791C183.515 101.379 182.92 101.716 182.301 101.716Z" fill="#006358"/>
</svg>
