<svg width="18" height="20" viewBox="0 0 18 20" fill="none" xmlns="http://www.w3.org/2000/svg">
<path d="M4.25 0.5C3.01625 0.5 2 1.51625 2 2.75V14.5H1.25C1.05109 14.5 0.86034 14.579 0.719692 14.7197C0.579044 14.8603 0.50002 15.0511 0.5 15.25V16.25C0.5 18.036 1.96403 19.5 3.75 19.5H14.75C16.536 19.5 18 18.036 18 16.25V2.75C18 1.51625 16.9838 0.5 15.75 0.5H4.25ZM6.25 4.5C6.664 4.5 7 4.836 7 5.25C7 5.664 6.664 6 6.25 6C5.836 6 5.5 5.664 5.5 5.25C5.5 4.836 5.836 4.5 6.25 4.5ZM8.75 4.5H13.75C14.1645 4.5 14.5 4.8355 14.5 5.25C14.5 5.6645 14.1645 6 13.75 6H8.75C8.3355 6 8 5.6645 8 5.25C8 4.8355 8.3355 4.5 8.75 4.5ZM6.25 7.5C6.664 7.5 7 7.836 7 8.25C7 8.664 6.664 9 6.25 9C5.836 9 5.5 8.664 5.5 8.25C5.5 7.836 5.836 7.5 6.25 7.5ZM8.75 7.5H13.75C14.1645 7.5 14.5 7.8355 14.5 8.25C14.5 8.6645 14.1645 9 13.75 9H8.75C8.3355 9 8 8.6645 8 8.25C8 7.8355 8.3355 7.5 8.75 7.5ZM6.25 10.5C6.664 10.5 7 10.836 7 11.25C7 11.664 6.664 12 6.25 12C5.836 12 5.5 11.664 5.5 11.25C5.5 10.836 5.836 10.5 6.25 10.5ZM8.75 10.5H13.75C14.1645 10.5 14.5 10.8355 14.5 11.25C14.5 11.6645 14.1645 12 13.75 12H8.75C8.3355 12 8 11.6645 8 11.25C8 10.8355 8.3355 10.5 8.75 10.5ZM2 16H11.5V16.25C11.5 16.9075 11.747 17.4867 12.0869 18H3.75C2.77497 18 2 17.225 2 16.25V16Z" fill="#008A7B"/>
</svg>
