<svg width="20" height="18" viewBox="0 0 20 18" fill="none" xmlns="http://www.w3.org/2000/svg">
<path d="M7.5999 7.8001C9.58813 7.8001 11.1999 6.18832 11.1999 4.2001C11.1999 2.21187 9.58813 0.600098 7.5999 0.600098C5.61168 0.600098 3.9999 2.21187 3.9999 4.2001C3.9999 6.18832 5.61168 7.8001 7.5999 7.8001Z" fill="#344563"/>
<path d="M7.5999 10.2001C11.5764 10.2001 14.7999 13.4236 14.7999 17.4001H0.399902C0.399902 13.4236 3.62345 10.2001 7.5999 10.2001Z" fill="#344563"/>
<path d="M17.1999 5.4001C17.1999 4.73736 16.6626 4.2001 15.9999 4.2001C15.3372 4.2001 14.7999 4.73736 14.7999 5.4001V6.6001H13.5999C12.9372 6.6001 12.3999 7.13735 12.3999 7.8001C12.3999 8.46284 12.9372 9.0001 13.5999 9.0001H14.7999V10.2001C14.7999 10.8628 15.3372 11.4001 15.9999 11.4001C16.6626 11.4001 17.1999 10.8628 17.1999 10.2001V9.0001H18.3999C19.0626 9.0001 19.5999 8.46284 19.5999 7.8001C19.5999 7.13736 19.0626 6.6001 18.3999 6.6001H17.1999V5.4001Z" fill="#344563"/>
</svg>
