<svg width="19" height="19" viewBox="0 0 19 19" fill="none" xmlns="http://www.w3.org/2000/svg">
<path fill-rule="evenodd" clip-rule="evenodd" d="M16.7071 2.29289C16.3166 1.90237 15.6834 1.90237 15.2929 2.29289L7 10.5858L7 12H8.41421L16.7071 3.70711C17.0976 3.31658 17.0976 2.68342 16.7071 2.29289ZM13.8787 0.87868C15.0503 -0.292893 16.9497 -0.292893 18.1213 0.87868C19.2929 2.05025 19.2929 3.94975 18.1213 5.12132L9.53553 13.7071C9.34799 13.8946 9.09364 14 8.82842 14H6C5.44772 14 5 13.5523 5 13L5 10.1716C5 9.90636 5.10536 9.652 5.29289 9.46447L13.8787 0.87868ZM3 4C2.44772 4 2 4.44772 2 5V16C2 16.5523 2.44772 17 3 17H14C14.5523 17 15 16.5523 15 16V11C15 10.4477 15.4477 10 16 10C16.5523 10 17 10.4477 17 11V16C17 17.6569 15.6569 19 14 19H3C1.34315 19 0 17.6569 0 16V5C0 3.34315 1.34315 2 3 2H8C8.55228 2 9 2.44772 9 3C9 3.55229 8.55228 4 8 4H3Z" fill="white"/>
</svg>
