<svg width="24" height="24" viewBox="0 0 24 24" fill="none" xmlns="http://www.w3.org/2000/svg">
<rect width="24" height="24" fill="white" fill-opacity="0.01"/>
<path fill-rule="evenodd" clip-rule="evenodd" d="M11.0621 4.96686C11.5781 3.99286 12.4201 3.98886 12.9381 4.96686L20.0621 18.4249C20.5781 19.3989 20.1071 20.1959 19.0051 20.1959H4.99507C3.89307 20.1959 3.42007 19.4029 3.93807 18.4249L11.0621 4.96686ZM11.293 14.707C11.4805 14.8945 11.7349 14.9999 12.0001 14.9999C12.2653 14.9999 12.5196 14.8945 12.7072 14.707C12.8947 14.5194 13.0001 14.2651 13.0001 13.9999V8.99986C13.0001 8.73465 12.8947 8.48029 12.7072 8.29276C12.5196 8.10522 12.2653 7.99986 12.0001 7.99986C11.7349 7.99986 11.4805 8.10522 11.293 8.29276C11.1054 8.48029 11.0001 8.73465 11.0001 8.99986V13.9999C11.0001 14.2651 11.1054 14.5194 11.293 14.707ZM11.293 17.707C11.4805 17.8945 11.7349 17.9999 12.0001 17.9999C12.2653 17.9999 12.5196 17.8945 12.7072 17.707C12.8947 17.5194 13.0001 17.2651 13.0001 16.9999C13.0001 16.7346 12.8947 16.4803 12.7072 16.2928C12.5196 16.1052 12.2653 15.9999 12.0001 15.9999C11.7349 15.9999 11.4805 16.1052 11.293 16.2928C11.1054 16.4803 11.0001 16.7346 11.0001 16.9999C11.0001 17.2651 11.1054 17.5194 11.293 17.707Z" fill="#FF8B00"/>
</svg>
