<svg width="16" height="16" viewBox="0 0 16 16" fill="none" xmlns="http://www.w3.org/2000/svg">
<path fill-rule="evenodd" clip-rule="evenodd" d="M0.339966 3C0.339966 1.61929 1.45925 0.5 2.83997 0.5H4.50663C5.88734 0.5 7.00663 1.61929 7.00663 3V4.66667C7.00663 6.04738 5.88734 7.16667 4.50663 7.16667H2.83997C1.45925 7.16667 0.339966 6.04738 0.339966 4.66667V3ZM2.83997 2.16667C2.37973 2.16667 2.00663 2.53976 2.00663 3V4.66667C2.00663 5.1269 2.37973 5.5 2.83997 5.5H4.50663C4.96687 5.5 5.33997 5.1269 5.33997 4.66667V3C5.33997 2.53976 4.96687 2.16667 4.50663 2.16667H2.83997ZM8.6733 3C8.6733 1.61929 9.79259 0.5 11.1733 0.5H12.84C14.2207 0.5 15.34 1.61929 15.34 3V4.66667C15.34 6.04738 14.2207 7.16667 12.84 7.16667H11.1733C9.79259 7.16667 8.6733 6.04738 8.6733 4.66667V3ZM11.1733 2.16667C10.7131 2.16667 10.34 2.53976 10.34 3V4.66667C10.34 5.1269 10.7131 5.5 11.1733 5.5H12.84C13.3002 5.5 13.6733 5.1269 13.6733 4.66667V3C13.6733 2.53976 13.3002 2.16667 12.84 2.16667H11.1733ZM0.339966 11.3333C0.339966 9.95262 1.45925 8.83333 2.83997 8.83333H4.50663C5.88734 8.83333 7.00663 9.95262 7.00663 11.3333V13C7.00663 14.3807 5.88734 15.5 4.50663 15.5H2.83997C1.45925 15.5 0.339966 14.3807 0.339966 13V11.3333ZM2.83997 10.5C2.37973 10.5 2.00663 10.8731 2.00663 11.3333V13C2.00663 13.4602 2.37973 13.8333 2.83997 13.8333H4.50663C4.96687 13.8333 5.33997 13.4602 5.33997 13V11.3333C5.33997 10.8731 4.96687 10.5 4.50663 10.5H2.83997ZM8.6733 11.3333C8.6733 9.95262 9.79259 8.83333 11.1733 8.83333H12.84C14.2207 8.83333 15.34 9.95262 15.34 11.3333V13C15.34 14.3807 14.2207 15.5 12.84 15.5H11.1733C9.79259 15.5 8.6733 14.3807 8.6733 13V11.3333ZM11.1733 10.5C10.7131 10.5 10.34 10.8731 10.34 11.3333V13C10.34 13.4602 10.7131 13.8333 11.1733 13.8333H12.84C13.3002 13.8333 13.6733 13.4602 13.6733 13V11.3333C13.6733 10.8731 13.3002 10.5 12.84 10.5H11.1733Z" fill="white"/>
</svg>
