<svg width="20" height="19" viewBox="0 0 20 19" fill="none" xmlns="http://www.w3.org/2000/svg">
<path d="M18.0224 0.988252C17.8599 0.98604 17.6993 1.02348 17.5544 1.09733C17.4096 1.17118 17.285 1.27922 17.1914 1.41208L5.85445 17H1.99996C1.86745 16.9981 1.73589 17.0226 1.61292 17.072C1.48995 17.1214 1.37803 17.1948 1.28366 17.2878C1.18929 17.3809 1.11435 17.4917 1.0632 17.614C1.01206 17.7362 0.985718 17.8674 0.985718 18C0.985718 18.1325 1.01206 18.2637 1.0632 18.386C1.11435 18.5082 1.18929 18.6191 1.28366 18.7121C1.37803 18.8052 1.48995 18.8785 1.61292 18.9279C1.73589 18.9774 1.86745 19.0018 1.99996 19H6.36324C6.52097 18.9999 6.67645 18.9625 6.81698 18.8909C6.9575 18.8193 7.0791 18.7154 7.17183 18.5879L18.8086 2.58786C18.9192 2.44022 18.9868 2.26487 19.0039 2.0812C19.0211 1.89753 18.9871 1.7127 18.9057 1.54714C18.8243 1.38158 18.6988 1.24175 18.5429 1.14312C18.387 1.04448 18.2069 0.990886 18.0224 0.988252ZM1.74996 8.99997C1.55105 8.99997 1.36028 9.07899 1.21963 9.21964C1.07898 9.36029 0.99996 9.55106 0.99996 9.74997C0.99996 9.94888 1.07898 10.1396 1.21963 10.2803C1.36028 10.421 1.55105 10.5 1.74996 10.5C1.94887 10.5 2.13964 10.421 2.28029 10.2803C2.42094 10.1396 2.49996 9.94888 2.49996 9.74997C2.49996 9.55106 2.42094 9.36029 2.28029 9.21964C2.13964 9.07899 1.94887 8.99997 1.74996 8.99997ZM4.24996 8.99997C4.05105 8.99997 3.86028 9.07899 3.71963 9.21964C3.57898 9.36029 3.49996 9.55106 3.49996 9.74997C3.49996 9.94888 3.57898 10.1396 3.71963 10.2803C3.86028 10.421 4.05105 10.5 4.24996 10.5C4.44887 10.5 4.63964 10.421 4.78029 10.2803C4.92094 10.1396 4.99996 9.94888 4.99996 9.74997C4.99996 9.55106 4.92094 9.36029 4.78029 9.21964C4.63964 9.07899 4.44887 8.99997 4.24996 8.99997ZM6.74996 8.99997C6.55105 8.99997 6.36028 9.07899 6.21963 9.21964C6.07898 9.36029 5.99996 9.55106 5.99996 9.74997C5.99996 9.94888 6.07898 10.1396 6.21963 10.2803C6.36028 10.421 6.55105 10.5 6.74996 10.5C6.94887 10.5 7.13964 10.421 7.28029 10.2803C7.42094 10.1396 7.49996 9.94888 7.49996 9.74997C7.49996 9.55106 7.42094 9.36029 7.28029 9.21964C7.13964 9.07899 6.94887 8.99997 6.74996 8.99997ZM9.24996 8.99997C9.05105 8.99997 8.86028 9.07899 8.71963 9.21964C8.57898 9.36029 8.49996 9.55106 8.49996 9.74997C8.49996 9.94888 8.57898 10.1396 8.71963 10.2803C8.86028 10.421 9.05105 10.5 9.24996 10.5C9.44887 10.5 9.63964 10.421 9.78029 10.2803C9.92094 10.1396 9.99996 9.94888 9.99996 9.74997C9.99996 9.55106 9.92094 9.36029 9.78029 9.21964C9.63964 9.07899 9.44887 8.99997 9.24996 8.99997ZM15.75 8.99997C15.551 8.99997 15.3603 9.07899 15.2196 9.21964C15.079 9.36029 15 9.55106 15 9.74997C15 9.94888 15.079 10.1396 15.2196 10.2803C15.3603 10.421 15.551 10.5 15.75 10.5C15.9489 10.5 16.1396 10.421 16.2803 10.2803C16.4209 10.1396 16.5 9.94888 16.5 9.74997C16.5 9.55106 16.4209 9.36029 16.2803 9.21964C16.1396 9.07899 15.9489 8.99997 15.75 8.99997ZM18.25 8.99997C18.051 8.99997 17.8603 9.07899 17.7196 9.21964C17.579 9.36029 17.5 9.55106 17.5 9.74997C17.5 9.94888 17.579 10.1396 17.7196 10.2803C17.8603 10.421 18.051 10.5 18.25 10.5C18.4489 10.5 18.6396 10.421 18.7803 10.2803C18.9209 10.1396 19 9.94888 19 9.74997C19 9.55106 18.9209 9.36029 18.7803 9.21964C18.6396 9.07899 18.4489 8.99997 18.25 8.99997Z" fill="#A5ADBA"/>
</svg>
