<svg width="24" height="24" viewBox="0 0 24 24" fill="none" xmlns="http://www.w3.org/2000/svg">
<path d="M5.75 3C4.24011 3 3 4.24011 3 5.75V15.2383C3 15.9672 3.28921 16.6671 3.80469 17.1826L6.69531 20.0742C6.70851 20.0874 6.72219 20.1001 6.73633 20.1123C7.23994 20.656 7.95687 21 8.75 21H18.25C19.7599 21 21 19.7599 21 18.25V8.75C21 7.95563 20.6546 7.2381 20.1094 6.73438C20.0981 6.72095 20.0864 6.70792 20.0742 6.69531L17.1826 3.80469C16.6669 3.28897 15.9669 3 15.2383 3H5.75ZM5.75 4.5H15.2383C15.5697 4.5 15.8878 4.63193 16.1221 4.86621L17.2559 6H7.25C7.19828 6 7.16643 6.04932 7.11621 6.05566L5.57812 4.51758C5.63472 4.50999 5.69106 4.5 5.75 4.5ZM4.51758 5.57812L6.05566 7.11621C6.04932 7.16643 6 7.19828 6 7.25V17.2559L4.86621 16.1221C4.63169 15.8875 4.5 15.5704 4.5 15.2383V5.75C4.5 5.69106 4.50999 5.63472 4.51758 5.57812ZM7.5 7.5H18.25C18.5673 7.5 18.8507 7.61732 19.0693 7.80664C19.3324 8.03444 19.5 8.3682 19.5 8.75V18.25C19.5 18.9491 18.9491 19.5 18.25 19.5H8.75C8.05089 19.5 7.5 18.9491 7.5 18.25V7.5Z" fill="#A5ADBA"/>
</svg>
