<svg width="32" height="32" viewBox="0 0 32 32" fill="none" xmlns="http://www.w3.org/2000/svg">
<rect width="32" height="32" rx="3" fill="white" fill-opacity="0.01"/>
<path fill-rule="evenodd" clip-rule="evenodd" d="M9.15152 9.15146C9.62015 8.68283 10.3799 8.68283 10.8486 9.15146L16 14.3029L21.1515 9.15146C21.6202 8.68283 22.3799 8.68283 22.8486 9.15146C23.3172 9.62009 23.3172 10.3799 22.8486 10.8485L17.6971 16L22.8486 21.1515C23.3172 21.6201 23.3172 22.3799 22.8486 22.8485C22.3799 23.3171 21.6202 23.3171 21.1515 22.8485L16 17.697L10.8486 22.8485C10.3799 23.3171 9.62015 23.3171 9.15152 22.8485C8.68289 22.3799 8.68289 21.6201 9.15152 21.1515L14.303 16L9.15152 10.8485C8.68289 10.3799 8.68289 9.62009 9.15152 9.15146Z" fill="#344563"/>
</svg>
